<svg xmlns="http://www.w3.org/2000/svg" width="228" height="243" fill="none"><path fill="#F6EFE3" d="M338.322 169.161c0-46.469-36.774-84.358-82.742-86.42C253.574 36.775 215.575 0 169.161 0s-84.413 36.774-86.42 82.742C36.83 84.748 0 122.636 0 169.16s36.83 84.358 82.742 86.419c2.061 45.968 40.006 82.742 86.419 82.742 46.414 0 84.358-36.83 86.419-82.742 45.968-2.006 82.742-40.005 82.742-86.419m-13.818-6.686h-68.757v-66.25c36.217 1.95 65.525 30.367 68.757 66.25m-82.185 79.9h-66.472v-17.328c2.229-8.191 7.021-19.948 17.44-30.59 10.921-11.143 23.068-16.158 31.593-18.498h17.328v66.36h.056zM95.891 175.847h17.44c8.135 2.006 19.836 6.575 30.423 16.772 12.035 11.589 16.771 24.906 18.609 32.261v17.384H95.947v-66.472h-.056zm0-79.9h66.417v17.551c-1.616 7.968-5.461 19.446-15.156 29.977-11.868 12.871-26.02 17.384-33.765 18.944H95.78V95.891h.056zm73.382 108.985c-3.566-7.132-8.748-14.821-16.159-22.008-6.185-5.962-12.648-10.308-18.777-13.429 7.466-3.621 15.49-8.97 22.845-16.938 5.683-6.185 9.75-12.648 12.592-18.833a83.7 83.7 0 0 0 17.328 22.343c5.461 5.071 11.701 9.417 18.332 12.871-7.076 3.622-14.71 8.692-21.786 15.991-6.352 6.631-11.032 13.54-14.375 20.003m55.774-42.457c-7.634-2.229-18.61-6.853-28.751-16.158-12.091-11.144-17.719-23.959-20.393-32.986V96.058h66.472v66.473h-17.328zm17.049-79.9h-66.249V13.818c35.827 3.232 64.299 32.54 66.249 68.757m-79.677-68.757v68.757H96.17c1.95-36.217 30.366-65.525 66.249-68.757m-79.9 82.352v66.249H13.763c3.231-35.827 32.539-64.243 68.756-66.249m-68.756 79.677h68.756v66.25c-36.217-1.951-65.525-30.367-68.756-66.25m82.351 79.901h66.249v68.756c-35.771-3.232-64.187-32.54-66.249-68.756m79.733 68.756v-68.756h66.249c-1.95 36.216-30.366 65.469-66.249 68.756m79.9-82.407v-66.25h68.757c-3.232 35.883-32.54 64.299-68.757 66.25"/></svg>