<svg width="400" height="230" viewBox="0 0 400 230" fill="none" xmlns="http://www.w3.org/2000/svg">
<path d="M20.5224 225.353L24.4353 216.912H26.6054V228.872H24.2474V221.969L21.035 228.872H19.8218L16.6437 222.038V228.872H14.2856V216.912H16.6095L20.5224 225.353Z" fill="#8C8A72"/>
<path d="M39.8534 228.872H37.2904L36.4189 226.412H31.908L31.0365 228.872H28.5589L33.0186 216.912H35.4108L39.8534 228.872ZM35.6158 224.156L34.1635 219.953L32.7111 224.156H35.6158Z" fill="#8C8A72"/>
<path d="M45.7458 228.872H43.3023V219.27H39.8337V216.912H49.2144V219.27H45.7458V228.872Z" fill="#8C8A72"/>
<path d="M53.9501 223.9V226.549H59.8622V228.872H51.5066V216.912H59.6913V219.235H53.9501V221.645H59.042V223.9H53.9501Z" fill="#8C8A72"/>
<path d="M71.7839 228.872H68.9645L66.5723 224.567H64.9832V228.872H62.5398V216.912H67.3925C69.7163 216.912 71.4421 218.518 71.4421 220.773C71.4421 222.294 70.4852 223.593 68.9645 224.191L71.7839 228.872ZM67.3241 219.235H64.9832V222.345H67.3241C68.281 222.345 68.9987 221.696 68.9987 220.79C68.9987 219.885 68.281 219.235 67.3241 219.235Z" fill="#8C8A72"/>
<path d="M76.7005 228.872H74.2571V216.912H76.7005V228.872Z" fill="#8C8A72"/>
<path d="M89.9464 228.872H87.3834L86.5119 226.412H82.001L81.1295 228.872H78.6519L83.1116 216.912H85.5038L89.9464 228.872ZM85.7088 224.156L84.2565 219.953L82.8041 224.156H85.7088Z" fill="#8C8A72"/>
<path d="M99.8981 228.872H91.9014V216.912H94.3449V226.514H99.8981V228.872Z" fill="#8C8A72"/>
<path d="M109.203 228.872H106.759V216.912H109.203V228.872Z" fill="#8C8A72"/>
<path d="M120.005 224.737V216.912H122.363V228.872H120.125L114.811 221.047V228.872H112.453V216.912H114.691L120.005 224.737Z" fill="#8C8A72"/>
<path d="M130.56 228.872H128.117V219.27H124.648V216.912H134.029V219.27H130.56V228.872Z" fill="#8C8A72"/>
<path d="M138.764 223.9V226.549H144.677V228.872H136.321V216.912H144.506V219.235H138.764V221.645H143.856V223.9H138.764Z" fill="#8C8A72"/>
<path d="M155.351 228.872H147.354V216.912H149.798V226.514H155.351V228.872Z" fill="#8C8A72"/>
<path d="M165.566 228.872H157.57V216.912H160.013V226.514H165.566V228.872Z" fill="#8C8A72"/>
<path d="M170.229 228.872H167.785V216.912H170.229V228.872Z" fill="#8C8A72"/>
<path d="M178.844 224.652V222.567H184.312V228.872H182.876L182.449 227.3C181.8 228.172 180.45 229.095 178.724 229.095C175.529 229.095 172.846 226.344 172.846 222.892C172.846 219.44 175.529 216.689 178.724 216.689C181.732 216.689 183.714 218.842 184.141 220.824H181.595C181.304 220.056 180.348 219.047 178.724 219.047C176.879 219.047 175.29 220.671 175.29 222.892C175.29 225.113 176.879 226.737 178.724 226.737C180.587 226.737 181.475 225.472 181.715 224.652H178.844Z" fill="#8C8A72"/>
<path d="M189.875 223.9V226.549H195.787V228.872H187.432V216.912H195.617V219.235H189.875V221.645H194.967V223.9H189.875Z" fill="#8C8A72"/>
<path d="M206.017 224.737V216.912H208.375V228.872H206.137L200.823 221.047V228.872H198.465V216.912H200.703L206.017 224.737Z" fill="#8C8A72"/>
<path d="M216.863 229.095C213.668 229.095 210.985 226.344 210.985 222.892C210.985 219.44 213.668 216.689 216.863 216.689C219.87 216.689 221.75 218.962 222.28 221.166H219.734C219.46 220.158 218.486 219.047 216.863 219.047C215.018 219.047 213.429 220.671 213.429 222.892C213.429 225.113 215.018 226.737 216.863 226.737C218.486 226.737 219.46 225.626 219.819 224.635H222.365C221.852 226.805 219.939 229.095 216.863 229.095Z" fill="#8C8A72"/>
<path d="M227.33 223.9V226.549H233.242V228.872H224.886V216.912H233.071V219.235H227.33V221.645H232.422V223.9H227.33Z" fill="#8C8A72"/>
<path d="M236.689 229.095C235.903 229.095 235.322 228.497 235.322 227.728C235.322 226.959 235.903 226.361 236.689 226.361C237.475 226.361 238.056 226.959 238.056 227.728C238.056 228.497 237.475 229.095 236.689 229.095Z" fill="#8C8A72"/>
<path d="M252.108 225.353L256.021 216.912H258.191V228.872H255.833V221.969L252.621 228.872H251.408L248.229 222.038V228.872H245.871V216.912H248.195L252.108 225.353Z" fill="#8C8A72"/>
<path d="M271.439 228.872H268.876L268.005 226.412H263.494L262.622 228.872H260.145L264.604 216.912H266.997L271.439 228.872ZM267.202 224.156L265.749 219.953L264.297 224.156H267.202Z" fill="#8C8A72"/>
<path d="M277.358 228.872H273.394V216.912H277.358C280.639 216.912 283.271 219.577 283.271 222.892C283.271 226.224 280.571 228.872 277.358 228.872ZM275.838 219.27V226.514H277.358C279.204 226.514 280.827 224.96 280.827 222.892C280.827 220.824 279.204 219.27 277.358 219.27H275.838Z" fill="#8C8A72"/>
<path d="M288.323 223.9V226.549H294.235V228.872H285.879V216.912H294.064V219.235H288.323V221.645H293.415V223.9H288.323Z" fill="#8C8A72"/>
<path d="M306.002 229.095C303.217 229.095 301.508 227.369 301.405 225.096H303.849C303.985 226.104 304.669 226.907 306.002 226.907C307.266 226.907 307.847 226.326 307.847 225.66C307.847 223.388 301.679 224.481 301.679 220.158C301.679 218.193 303.217 216.689 305.848 216.689C308.36 216.689 310.034 218.398 310.137 220.585H307.693C307.625 219.611 306.959 218.877 305.848 218.877C304.72 218.877 304.122 219.457 304.122 220.192C304.122 222.448 310.291 221.32 310.291 225.575C310.291 227.557 308.753 229.095 306.002 229.095Z" fill="#8C8A72"/>
<path d="M312.955 216.912H317.517C319.875 216.912 321.669 218.654 321.669 220.961C321.669 223.268 319.875 225.011 317.517 225.011H315.398V228.872H312.955V216.912ZM315.398 222.653H317.466C318.423 222.653 319.226 221.935 319.226 220.961C319.226 219.987 318.423 219.27 317.466 219.27H315.398V222.653Z" fill="#8C8A72"/>
<path d="M326.765 223.9V226.549H332.677V228.872H324.322V216.912H332.506V219.235H326.765V221.645H331.857V223.9H326.765Z" fill="#8C8A72"/>
<path d="M340.267 229.095C337.071 229.095 334.389 226.344 334.389 222.892C334.389 219.44 337.071 216.689 340.267 216.689C343.274 216.689 345.154 218.962 345.683 221.166H343.137C342.864 220.158 341.89 219.047 340.267 219.047C338.421 219.047 336.832 220.671 336.832 222.892C336.832 225.113 338.421 226.737 340.267 226.737C341.89 226.737 342.864 225.626 343.223 224.635H345.769C345.256 226.805 343.342 229.095 340.267 229.095Z" fill="#8C8A72"/>
<path d="M350.734 228.872H348.29V216.912H350.734V228.872Z" fill="#8C8A72"/>
<path d="M362.066 216.912V219.27H356.427V222.14H361.28V224.396H356.427V228.872H353.984V216.912H362.066Z" fill="#8C8A72"/>
<path d="M367.06 228.872H364.616V216.912H367.06V228.872Z" fill="#8C8A72"/>
<path d="M375.555 229.095C372.36 229.095 369.678 226.344 369.678 222.892C369.678 219.44 372.36 216.689 375.555 216.689C378.563 216.689 380.442 218.962 380.972 221.166H378.426C378.153 220.158 377.179 219.047 375.555 219.047C373.71 219.047 372.121 220.671 372.121 222.892C372.121 225.113 373.71 226.737 375.555 226.737C377.179 226.737 378.153 225.626 378.511 224.635H381.057C380.545 226.805 378.631 229.095 375.555 229.095Z" fill="#8C8A72"/>
<path d="M384.348 229.095C383.562 229.095 382.981 228.497 382.981 227.728C382.981 226.959 383.562 226.361 384.348 226.361C385.134 226.361 385.715 226.959 385.715 227.728C385.715 228.497 385.134 229.095 384.348 229.095Z" fill="#8C8A72"/>
<path d="M231.621 31.6217C231.621 22.9351 224.747 15.8525 216.154 15.4672C215.779 6.87429 208.675 0 199.999 0C191.323 0 184.22 6.87429 183.845 15.4672C175.262 15.8421 168.377 22.9247 168.377 31.6217C168.377 40.3188 175.262 47.3909 183.845 47.7763C184.23 56.3692 191.323 63.2435 199.999 63.2435C208.675 63.2435 215.768 56.3588 216.154 47.7763C224.747 47.4014 231.621 40.2979 231.621 31.6217ZM229.038 30.3719H216.185V17.9877C222.955 18.3523 228.434 23.6642 229.038 30.3719ZM213.675 45.3078H201.249V42.0686C201.666 40.5375 202.561 38.3398 204.509 36.3504C206.551 34.2673 208.821 33.3299 210.415 32.8924H213.654V45.2974H213.664L213.675 45.3078ZM186.303 32.8716H189.563C191.083 33.2466 193.271 34.1006 195.25 36.0067C197.499 38.1731 198.385 40.6625 198.728 42.0373V45.287H186.313V32.8612H186.303V32.8716ZM186.303 17.9356H198.718V21.2166C198.416 22.706 197.697 24.8516 195.885 26.8201C193.667 29.2261 191.021 30.0698 189.573 30.3614H186.282V17.9252H186.292L186.303 17.9356ZM200.02 38.3085C199.353 36.9753 198.385 35.538 196.999 34.1944C195.843 33.0799 194.635 32.2675 193.489 31.6842C194.885 31.0072 196.385 30.0073 197.76 28.5179C198.822 27.3618 199.583 26.1535 200.114 24.9974C200.843 26.3619 201.884 27.8305 203.353 29.1741C204.374 30.1219 205.54 30.9343 206.78 31.5801C205.457 32.2571 204.03 33.2049 202.707 34.5693C201.52 35.8088 200.645 37.1003 200.02 38.3085ZM210.446 30.3719C209.019 29.9552 206.967 29.0907 205.072 27.3513C202.811 25.2682 201.759 22.8726 201.259 21.1853V17.9565H213.685V30.3823H210.446V30.3719ZM213.633 15.4359H201.249V2.58307C207.946 3.18717 213.269 8.66577 213.633 15.4359ZM198.739 2.58307V15.4359H186.355C186.719 8.66577 192.031 3.18717 198.739 2.58307ZM183.803 17.9773V30.3614H170.95C171.554 23.6642 177.033 18.3523 183.803 17.9773ZM170.95 32.8716H183.803V45.2557C177.033 44.8912 171.554 39.5792 170.95 32.8716ZM186.344 47.8076H198.728V60.6604C192.042 60.0563 186.73 54.5777 186.344 47.8076ZM201.249 60.6604V47.8076H213.633C213.269 54.5777 207.957 60.0459 201.249 60.6604ZM216.185 45.2557V32.8716H229.038C228.434 39.5792 222.955 44.8912 216.185 45.2557Z" fill="#8C8A72"/>
<path d="M34.861 98.2814C31.8196 98.2814 29.549 98.521 28.0284 99.0001C26.5181 99.4792 25.3828 100.5 24.6537 102.052C23.9142 103.614 23.5497 106.083 23.5497 109.468V135.736H55.2755V109.343C55.2755 105.958 54.9318 103.51 54.234 102C53.5466 100.49 52.4425 99.4896 50.9218 99.0105C49.4012 98.5314 47.0472 98.2918 43.8392 98.2918V96.0837H79.2106V98.2918H78.3044C75.4401 98.3752 73.2945 98.6564 71.8676 99.1355C70.4407 99.6146 69.3574 100.635 68.6179 102.187C67.8784 103.75 67.5139 106.176 67.5139 109.468V171.368C67.5139 174.753 67.8784 177.221 68.6179 178.784C69.3574 180.346 70.5031 181.356 72.0655 181.835C73.6278 182.314 76.013 182.554 79.221 182.554V184.762H43.8496V182.554H45.0162C47.7867 182.554 49.8907 182.273 51.3176 181.71C52.755 181.148 53.7653 180.065 54.3694 178.461C54.9735 176.857 55.286 174.492 55.286 171.368V140.683H23.5601V171.368C23.5601 174.492 23.883 176.857 24.5391 178.461C25.1953 180.065 26.2056 181.148 27.5909 181.71C28.9762 182.273 31.0176 182.554 33.7049 182.554H34.8714V184.762H0V182.554H1.16655C3.77044 182.554 5.78065 182.273 7.20759 181.71C8.64494 181.148 9.6865 180.085 10.3323 178.523C10.978 176.961 11.3113 174.576 11.3113 171.368V109.468C11.3113 104.958 10.5927 101.969 9.16572 100.5C7.73879 99.0209 5.29112 98.2814 1.82273 98.2814H0V96.0733H34.861V98.2814Z" fill="#8C8A72"/>
<path d="M143.423 160.046H143.684V109.332C143.684 106.041 143.319 103.614 142.58 102.052C141.85 100.5 140.674 99.4792 139.07 99.0001C137.466 98.521 135.143 98.2814 132.112 98.2814V96.0733H157.734V98.2814C154.526 98.2814 152.204 98.9793 150.777 100.365C149.35 101.75 148.631 104 148.631 107.124V186.189H146.808L96.3552 114.28H96.0948V171.368C96.0948 174.576 96.4385 176.982 97.1363 178.586C97.8342 180.19 98.907 181.231 100.386 181.7C101.865 182.179 103.99 182.46 106.76 182.544H108.573V184.752H81.138V182.544C84.7834 182.366 87.3561 181.679 88.8768 180.471C90.3974 179.252 91.1578 176.825 91.1578 173.18V107.124C90.8141 106.687 90.4391 106.187 90.0537 105.624C89.6579 105.062 89.2101 104.479 88.6893 103.875C87.0436 101.614 85.6792 100.125 84.596 99.3855C83.5127 98.646 81.7213 98.2814 79.2007 98.2814V96.0733H98.4487L143.434 160.046H143.423Z" fill="#8C8A72"/>
<path d="M230.288 98.2816C227.945 98.2816 226.195 98.6461 225.018 99.3856C223.852 100.115 223.268 101.437 223.268 103.354C223.268 104.479 223.57 106.041 224.185 108.031L238.621 159.525H238.881L249.672 122.987L245.381 107.77C244.433 104.645 243.35 102.354 242.131 100.885C240.923 99.4065 238.798 98.542 235.767 98.2816V96.0735H267.233V98.2816C263.941 98.2816 261.525 98.719 260.015 99.5835C258.494 100.448 257.744 102.01 257.744 104.26C257.744 105.385 258.088 107.208 258.786 109.728L272.315 159.015H272.565L285.96 111.426C286.824 108.562 287.262 106.312 287.262 104.656C287.262 102.406 286.543 100.781 285.116 99.7814C283.689 98.7815 281.367 98.2816 278.159 98.2816V96.0735H300.917V98.2816C299.271 98.4586 297.927 98.8857 296.886 99.5835C295.844 100.271 294.917 101.49 294.094 103.219C293.272 104.948 292.376 107.551 291.428 111.02L269.576 186.7H267.243L252.286 132.08H252.026L235.767 186.7H233.809L211.572 109.062C210.447 105.25 209.27 102.583 208.051 101.073C206.843 99.5523 204.937 98.6149 202.333 98.2711V96.063H230.288V98.2711V98.2816Z" fill="#8C8A72"/>
<path d="M329.372 98.2816C327.028 98.2816 325.279 98.6461 324.102 99.3856C322.935 100.115 322.352 101.437 322.352 103.354C322.352 104.479 322.654 106.041 323.268 108.031L337.704 159.525H337.965L348.755 122.987L344.464 107.77C343.516 104.645 342.433 102.354 341.214 100.885C340.006 99.4065 337.881 98.542 334.851 98.2816V96.0735H366.316V98.2816C363.014 98.2816 360.608 98.719 359.098 99.5835C357.577 100.448 356.827 102.01 356.827 104.26C356.827 105.385 357.171 107.208 357.869 109.728L371.399 159.015H371.649L385.043 111.426C385.908 108.562 386.345 106.312 386.345 104.656C386.345 102.406 385.627 100.781 384.2 99.7814C382.773 98.7815 380.45 98.2816 377.242 98.2816V96.0735H400V98.2816C398.354 98.4586 397.011 98.8857 395.969 99.5835C394.928 100.271 394.001 101.49 393.178 103.219C392.355 104.948 391.459 107.551 390.511 111.02L368.66 186.7H366.326L351.37 132.08H351.109L334.851 186.7H332.892L310.655 109.062C309.53 105.25 308.353 102.583 307.135 101.073C305.926 99.5523 304.02 98.6149 301.417 98.2711V96.063H329.372V98.2711V98.2816Z" fill="#8C8A72"/>
<path d="M167.961 124.404C167.961 133.549 168.961 140.183 170.961 144.298C172.961 148.412 176.242 150.464 180.793 150.464C185.345 150.464 188.876 148.276 190.772 143.881C192.667 139.496 193.615 132.997 193.615 124.393C193.615 115.082 192.574 108.406 190.49 104.385C188.407 100.354 185.147 98.3337 180.71 98.3337C176.971 98.3337 174.169 99.6981 172.305 102.437C170.44 105.166 169.243 108.374 168.732 112.051C168.222 115.728 167.961 119.842 167.961 124.393M180.793 95.5006C185.501 95.5006 189.511 96.865 192.803 99.6043C196.104 102.333 198.583 105.906 200.229 110.322C201.885 114.728 202.708 119.425 202.708 124.404C202.708 129.383 201.875 134.142 200.229 138.527C198.583 142.912 196.104 146.464 192.803 149.203C189.501 151.932 185.501 153.297 180.793 153.297C176.086 153.297 172.315 151.984 169.013 149.36C165.712 146.735 163.191 143.214 161.462 138.809C159.723 134.403 158.869 129.591 158.869 124.404C158.869 119.217 159.691 114.728 161.348 110.322C162.993 105.906 165.472 102.333 168.774 99.6043C172.076 96.865 176.086 95.5006 180.793 95.5006Z" fill="#8C8A72"/>
<path d="M190.939 160.567H169.077V164.035H190.939V160.567Z" fill="#8C8A72"/>
</svg>
