<svg width="400" height="230" viewBox="0 0 400 230" fill="none" xmlns="http://www.w3.org/2000/svg">
<path d="M231.57 31.6217C231.57 22.9351 224.695 15.8525 216.102 15.4672C215.728 6.87429 208.624 0 199.948 0C191.272 0 184.168 6.87429 183.793 15.4672C175.211 15.8421 168.326 22.9247 168.326 31.6217C168.326 40.3188 175.211 47.3909 183.793 47.7763C184.179 56.3692 191.272 63.2435 199.948 63.2435C208.624 63.2435 215.717 56.3588 216.102 47.7763C224.695 47.4014 231.57 40.2979 231.57 31.6217ZM228.987 30.3719H216.134V17.9877C222.904 18.3523 228.382 23.6642 228.987 30.3719ZM213.624 45.3078H201.198V42.0686C201.614 40.5375 202.51 38.3398 204.458 36.3504C206.499 34.2673 208.77 33.3299 210.363 32.8924H213.603V45.2974H213.613L213.624 45.3078ZM186.251 32.8716H189.511C191.032 33.2466 193.219 34.1006 195.198 36.0067C197.448 38.1731 198.333 40.6625 198.677 42.0373V45.287H186.262V32.8612H186.251V32.8716ZM186.251 17.9356H198.667V21.2166C198.365 22.706 197.646 24.8516 195.834 26.8201C193.615 29.2261 190.97 30.0698 189.522 30.3614H186.231V17.9252H186.241L186.251 17.9356ZM199.969 38.3085C199.302 36.9753 198.333 35.538 196.948 34.1944C195.792 33.0799 194.584 32.2675 193.438 31.6842C194.834 31.0072 196.334 30.0073 197.709 28.5179C198.771 27.3618 199.531 26.1535 200.062 24.9974C200.792 26.3619 201.833 27.8305 203.302 29.1741C204.322 30.1219 205.489 30.9343 206.728 31.5801C205.406 32.2571 203.979 33.2049 202.656 34.5693C201.469 35.8088 200.594 37.1003 199.969 38.3085ZM210.395 30.3719C208.968 29.9552 206.916 29.0907 205.02 27.3513C202.76 25.2682 201.708 22.8726 201.208 21.1853V17.9565H213.634V30.3823H210.395V30.3719ZM213.582 15.4359H201.198V2.58307C207.895 3.18717 213.217 8.66577 213.582 15.4359ZM198.688 2.58307V15.4359H186.303C186.668 8.66577 191.98 3.18717 198.688 2.58307ZM183.752 17.9773V30.3614H170.899C171.503 23.6642 176.982 18.3523 183.752 17.9773ZM170.899 32.8716H183.752V45.2557C176.982 44.8912 171.503 39.5792 170.899 32.8716ZM186.293 47.8076H198.677V60.6604C191.99 60.0563 186.678 54.5777 186.293 47.8076ZM201.198 60.6604V47.8076H213.582C213.217 54.5777 207.905 60.0459 201.198 60.6604ZM216.134 45.2557V32.8716H228.987C228.382 39.5792 222.904 44.8912 216.134 45.2557Z" fill="#8C8A72"/>
<path d="M34.861 98.2815C31.8196 98.2815 29.549 98.5211 28.0284 99.0002C26.5181 99.4793 25.3828 100.5 24.6537 102.052C23.9142 103.614 23.5497 106.083 23.5497 109.468V135.736H55.2755V109.343C55.2755 105.958 54.9318 103.51 54.234 102C53.5466 100.49 52.4425 99.4897 50.9218 99.0106C49.4012 98.5315 47.0472 98.2919 43.8392 98.2919V96.0838H79.2106V98.2919H78.3044C75.4401 98.3752 73.2945 98.6565 71.8676 99.1356C70.4407 99.6147 69.3574 100.635 68.6179 102.187C67.8784 103.75 67.5139 106.177 67.5139 109.468V171.368C67.5139 174.753 67.8784 177.221 68.6179 178.784C69.3574 180.346 70.5031 181.356 72.0655 181.835C73.6278 182.315 76.013 182.554 79.221 182.554V184.762H43.8496V182.554H45.0162C47.7867 182.554 49.8907 182.273 51.3176 181.71C52.755 181.148 53.7653 180.065 54.3694 178.461C54.9735 176.857 55.286 174.492 55.286 171.368V140.683H23.5601V171.368C23.5601 174.492 23.883 176.857 24.5391 178.461C25.1953 180.065 26.2056 181.148 27.5909 181.71C28.9762 182.273 31.0176 182.554 33.7049 182.554H34.8714V184.762H0V182.554H1.16655C3.77044 182.554 5.78065 182.273 7.20759 181.71C8.64494 181.148 9.6865 180.086 10.3323 178.523C10.978 176.961 11.3113 174.576 11.3113 171.368V109.468C11.3113 104.958 10.5927 101.969 9.16572 100.5C7.73879 99.021 5.29112 98.2815 1.82273 98.2815H0V96.0734H34.861V98.2815Z" fill="#8C8A72"/>
<path d="M143.423 160.046H143.684V109.332C143.684 106.041 143.319 103.614 142.58 102.052C141.85 100.5 140.674 99.4793 139.07 99.0002C137.466 98.5211 135.143 98.2815 132.112 98.2815V96.0734H157.734V98.2815C154.526 98.2815 152.204 98.9793 150.777 100.365C149.35 101.75 148.631 104 148.631 107.124V186.189H146.808L96.3552 114.28H96.0948V171.368C96.0948 174.576 96.4385 176.982 97.1363 178.586C97.8342 180.19 98.907 181.231 100.386 181.7C101.865 182.179 103.99 182.46 106.76 182.544H108.573V184.752H81.138V182.544C84.7834 182.367 87.3561 181.679 88.8768 180.471C90.3974 179.252 91.1578 176.825 91.1578 173.18V107.124C90.8141 106.687 90.4391 106.187 90.0537 105.624C89.6579 105.062 89.2101 104.479 88.6893 103.875C87.0436 101.614 85.6792 100.125 84.596 99.3856C83.5127 98.646 81.7213 98.2815 79.2007 98.2815V96.0734H98.4487L143.434 160.046H143.423Z" fill="#8C8A72"/>
<path d="M230.288 98.2815C227.945 98.2815 226.195 98.6461 225.018 99.3856C223.852 100.115 223.268 101.437 223.268 103.354C223.268 104.479 223.57 106.041 224.185 108.031L238.621 159.525H238.881L249.672 122.987L245.381 107.77C244.433 104.645 243.35 102.354 242.131 100.885C240.923 99.4064 238.798 98.5419 235.767 98.2815V96.0734H267.233V98.2815C263.941 98.2815 261.525 98.719 260.015 99.5835C258.494 100.448 257.744 102.01 257.744 104.26C257.744 105.385 258.088 107.208 258.786 109.728L272.315 159.015H272.565L285.96 111.426C286.824 108.562 287.262 106.312 287.262 104.656C287.262 102.406 286.543 100.781 285.116 99.7814C283.689 98.7815 281.367 98.2815 278.159 98.2815V96.0734H300.917V98.2815C299.271 98.4586 297.927 98.8856 296.886 99.5835C295.844 100.271 294.917 101.49 294.094 103.219C293.272 104.948 292.376 107.551 291.428 111.02L269.576 186.699H267.243L252.286 132.08H252.026L235.767 186.699H233.809L211.572 109.062C210.447 105.25 209.27 102.583 208.051 101.073C206.843 99.5522 204.937 98.6148 202.333 98.2711V96.063H230.288V98.2711V98.2815Z" fill="#8C8A72"/>
<path d="M329.372 98.2815C327.028 98.2815 325.279 98.6461 324.102 99.3856C322.935 100.115 322.352 101.437 322.352 103.354C322.352 104.479 322.654 106.041 323.268 108.031L337.704 159.525H337.965L348.755 122.987L344.464 107.77C343.516 104.645 342.433 102.354 341.214 100.885C340.006 99.4064 337.881 98.5419 334.851 98.2815V96.0734H366.316V98.2815C363.014 98.2815 360.608 98.719 359.098 99.5835C357.577 100.448 356.827 102.01 356.827 104.26C356.827 105.385 357.171 107.208 357.869 109.728L371.399 159.015H371.649L385.043 111.426C385.908 108.562 386.345 106.312 386.345 104.656C386.345 102.406 385.627 100.781 384.2 99.7814C382.773 98.7815 380.45 98.2815 377.242 98.2815V96.0734H400V98.2815C398.354 98.4586 397.011 98.8856 395.969 99.5835C394.928 100.271 394.001 101.49 393.178 103.219C392.355 104.948 391.459 107.551 390.511 111.02L368.66 186.699H366.326L351.37 132.08H351.109L334.851 186.699H332.892L310.655 109.062C309.53 105.25 308.353 102.583 307.135 101.073C305.926 99.5522 304.02 98.6148 301.417 98.2711V96.063H329.372V98.2711V98.2815Z" fill="#8C8A72"/>
<path d="M167.961 124.404C167.961 133.549 168.961 140.184 170.961 144.298C172.961 148.412 176.242 150.464 180.793 150.464C185.345 150.464 188.876 148.276 190.772 143.881C192.667 139.496 193.615 132.997 193.615 124.393C193.615 115.082 192.574 108.406 190.49 104.385C188.407 100.354 185.147 98.3337 180.71 98.3337C176.971 98.3337 174.169 99.6981 172.305 102.437C170.44 105.166 169.243 108.374 168.732 112.051C168.222 115.728 167.961 119.842 167.961 124.393M180.793 95.5006C185.501 95.5006 189.511 96.8651 192.803 99.6044C196.104 102.333 198.583 105.906 200.229 110.322C201.885 114.728 202.708 119.425 202.708 124.404C202.708 129.383 201.875 134.142 200.229 138.527C198.583 142.912 196.104 146.464 192.803 149.203C189.501 151.932 185.501 153.297 180.793 153.297C176.086 153.297 172.315 151.984 169.013 149.36C165.712 146.735 163.191 143.214 161.462 138.809C159.723 134.403 158.869 129.591 158.869 124.404C158.869 119.217 159.691 114.728 161.348 110.322C162.993 105.906 165.472 102.333 168.774 99.6044C172.076 96.8651 176.086 95.5006 180.793 95.5006Z" fill="#8C8A72"/>
<path d="M190.939 160.567H169.077V164.035H190.939V160.567Z" fill="#8C8A72"/>
<path d="M64.1003 229.841C60.5206 229.841 57.5151 226.759 57.5151 222.892C57.5151 219.025 60.5206 215.943 64.1003 215.943C67.68 215.943 70.6854 219.025 70.6854 222.892C70.6854 226.759 67.68 229.841 64.1003 229.841ZM64.1003 227.199C66.1677 227.199 67.948 225.381 67.948 222.892C67.948 220.403 66.1677 218.585 64.1003 218.585C62.0329 218.585 60.2526 220.403 60.2526 222.892C60.2526 225.381 62.0329 227.199 64.1003 227.199Z" fill="#8C8A72"/>
<path d="M81.6525 222.471C82.5905 222.815 83.9114 223.811 83.9114 225.763C83.9114 227.888 82.1311 229.592 79.5277 229.592H73.6125V216.192H79.2979C81.7099 216.192 83.3754 217.781 83.3754 219.772C83.3754 221.322 82.4374 222.184 81.6525 222.471ZM78.9725 218.527H76.3499V221.495H78.9725C79.9297 221.495 80.6379 220.863 80.6379 220.001C80.6379 219.159 79.9297 218.527 78.9725 218.527ZM76.3499 227.257H79.2214C80.3699 227.257 81.1739 226.529 81.1739 225.495C81.1739 224.462 80.3699 223.753 79.2214 223.753H76.3499V227.257Z" fill="#8C8A72"/>
<path d="M90.1074 229.841C87.3317 229.841 85.5705 227.965 85.5705 225.495H88.2888C88.3271 226.414 88.978 227.199 90.1074 227.199C91.2368 227.199 91.9068 226.433 91.9068 225.4V216.192H94.6442V225.4C94.6442 227.946 92.9022 229.841 90.1074 229.841Z" fill="#8C8A72"/>
<path d="M100.922 224.021V226.989H107.545V229.592H98.1842V216.192H107.354V218.795H100.922V221.495H106.626V224.021H100.922Z" fill="#8C8A72"/>
<path d="M116.048 229.841C112.468 229.841 109.463 226.759 109.463 222.892C109.463 219.025 112.468 215.943 116.048 215.943C119.417 215.943 121.523 218.489 122.116 220.959H119.264C118.958 219.829 117.866 218.585 116.048 218.585C113.98 218.585 112.2 220.403 112.2 222.892C112.2 225.381 113.98 227.199 116.048 227.199C117.866 227.199 118.958 225.955 119.36 224.845H122.212C121.638 227.276 119.494 229.841 116.048 229.841Z" fill="#8C8A72"/>
<path d="M130.214 229.592H127.477V218.834H123.591V216.192H134.1V218.834H130.214V229.592Z" fill="#8C8A72"/>
<path d="M140.697 229.841C137.577 229.841 135.663 227.907 135.548 225.361H138.285C138.438 226.491 139.204 227.391 140.697 227.391C142.114 227.391 142.765 226.74 142.765 225.993C142.765 223.447 135.854 224.672 135.854 219.829C135.854 217.628 137.577 215.943 140.525 215.943C143.339 215.943 145.215 217.857 145.33 220.308H142.592C142.516 219.217 141.769 218.393 140.525 218.393C139.261 218.393 138.591 219.044 138.591 219.867C138.591 222.394 145.502 221.131 145.502 225.897C145.502 228.118 143.779 229.841 140.697 229.841Z" fill="#8C8A72"/>
<path d="M158.708 229.592H154.267V216.192H158.708C162.383 216.192 165.331 219.178 165.331 222.892C165.331 226.625 162.307 229.592 158.708 229.592ZM157.004 218.834V226.95H158.708C160.775 226.95 162.594 225.208 162.594 222.892C162.594 220.576 160.775 218.834 158.708 218.834H157.004Z" fill="#8C8A72"/>
<path d="M170.991 224.021V226.989H177.615V229.592H168.254V216.192H177.423V218.795H170.991V221.495H176.696V224.021H170.991Z" fill="#8C8A72"/>
<path d="M185.017 229.841C181.897 229.841 179.983 227.907 179.868 225.361H182.605C182.758 226.491 183.524 227.391 185.017 227.391C186.434 227.391 187.085 226.74 187.085 225.993C187.085 223.447 180.174 224.672 180.174 219.829C180.174 217.628 181.897 215.943 184.845 215.943C187.659 215.943 189.535 217.857 189.65 220.308H186.912C186.836 219.217 186.089 218.393 184.845 218.393C183.582 218.393 182.912 219.044 182.912 219.867C182.912 222.394 189.822 221.131 189.822 225.897C189.822 228.118 188.099 229.841 185.017 229.841Z" fill="#8C8A72"/>
<path d="M195.544 229.592H192.807V216.192H195.544V229.592Z" fill="#8C8A72"/>
<path d="M205.196 224.864V222.528H211.322V229.592H209.714L209.235 227.831C208.508 228.807 206.996 229.841 205.062 229.841C201.482 229.841 198.477 226.759 198.477 222.892C198.477 219.025 201.482 215.943 205.062 215.943C208.431 215.943 210.652 218.355 211.13 220.576H208.278C207.953 219.714 206.881 218.585 205.062 218.585C202.995 218.585 201.214 220.403 201.214 222.892C201.214 225.381 202.995 227.199 205.062 227.199C207.149 227.199 208.144 225.783 208.412 224.864H205.196Z" fill="#8C8A72"/>
<path d="M223.279 224.959V216.192H225.92V229.592H223.413L217.459 220.825V229.592H214.817V216.192H217.325L223.279 224.959Z" fill="#8C8A72"/>
<path d="M232.29 224.021V226.989H238.913V229.592H229.552V216.192H238.722V218.795H232.29V221.495H237.994V224.021H232.29Z" fill="#8C8A72"/>
<path d="M246.354 229.592H241.913V216.192H246.354C250.029 216.192 252.977 219.178 252.977 222.892C252.977 226.625 249.953 229.592 246.354 229.592ZM244.65 218.834V226.95H246.354C248.421 226.95 250.24 225.208 250.24 222.892C250.24 220.576 248.421 218.834 246.354 218.834H244.65Z" fill="#8C8A72"/>
<path d="M266.652 229.592H263.915V218.834H260.029V216.192H270.538V218.834H266.652V229.592Z" fill="#8C8A72"/>
<path d="M278.609 229.841C275.029 229.841 272.024 226.759 272.024 222.892C272.024 219.025 275.029 215.943 278.609 215.943C282.189 215.943 285.194 219.025 285.194 222.892C285.194 226.759 282.189 229.841 278.609 229.841ZM278.609 227.199C280.676 227.199 282.457 225.381 282.457 222.892C282.457 220.403 280.676 218.585 278.609 218.585C276.542 218.585 274.761 220.403 274.761 222.892C274.761 225.381 276.542 227.199 278.609 227.199Z" fill="#8C8A72"/>
<path d="M298.304 229.841C295.184 229.841 293.27 227.907 293.155 225.361H295.892C296.045 226.491 296.811 227.391 298.304 227.391C299.721 227.391 300.372 226.74 300.372 225.993C300.372 223.447 293.461 224.672 293.461 219.829C293.461 217.628 295.184 215.943 298.132 215.943C300.946 215.943 302.822 217.857 302.937 220.308H300.199C300.123 219.217 299.376 218.393 298.132 218.393C296.869 218.393 296.199 219.044 296.199 219.867C296.199 222.394 303.109 221.131 303.109 225.897C303.109 228.118 301.386 229.841 298.304 229.841Z" fill="#8C8A72"/>
<path d="M311.271 229.592H308.534V218.834H304.648V216.192H315.157V218.834H311.271V229.592Z" fill="#8C8A72"/>
<path d="M327.784 229.592H324.912L323.936 226.835H318.882L317.906 229.592H315.13L320.126 216.192H322.806L327.784 229.592ZM323.036 224.309L321.409 219.599L319.782 224.309H323.036Z" fill="#8C8A72"/>
<path d="M333.553 221.686L336.29 216.192H339.238L334.874 224.596V229.592H332.136V224.596L327.772 216.192H330.815L333.553 221.686Z" fill="#8C8A72"/>
<path d="M340.953 229.841C340.072 229.841 339.421 229.171 339.421 228.309C339.421 227.448 340.072 226.778 340.953 226.778C341.833 226.778 342.484 227.448 342.484 228.309C342.484 229.171 341.833 229.841 340.953 229.841Z" fill="#8C8A72"/>
</svg>
