<svg width="140" height="81" viewBox="0 0 140 81" fill="none" xmlns="http://www.w3.org/2000/svg">
<g clip-path="url(#clip0_583_2)">
<path d="M81.05 11.068C81.05 8.028 78.643 5.548 75.636 5.414C75.5702 3.95779 74.9461 2.58288 73.8932 1.57472C72.8404 0.566564 71.4397 0.002627 69.982 0C68.5243 0.002627 67.1236 0.566564 66.0708 1.57472C65.0179 2.58288 64.3938 3.95779 64.328 5.414C62.8715 5.47884 61.496 6.10267 60.4876 7.15572C59.4793 8.20878 58.9156 9.61002 58.914 11.068C58.914 14.112 61.324 16.587 64.328 16.722C64.462 19.729 66.945 22.135 69.982 22.135C73.019 22.135 75.501 19.725 75.636 16.722C77.092 16.6559 78.4667 16.0317 79.4746 14.9789C80.4826 13.9261 81.0474 12.5255 81.05 11.068ZM80.144 10.63H75.646V6.296C76.7909 6.3588 77.8751 6.83108 78.7008 7.62669C79.5265 8.42229 80.0387 9.4882 80.144 10.63ZM74.767 15.858H70.42V14.724C70.6245 13.971 71.0171 13.2824 71.561 12.723C72.1311 12.1442 72.8442 11.7267 73.628 11.513H74.762V15.854H74.766L74.767 15.858ZM65.187 11.505H66.327C66.86 11.636 67.626 11.935 68.318 12.602C68.9125 13.1786 69.3344 13.9097 69.536 14.713V15.85H65.19V11.501H65.187V11.505ZM65.187 6.277H69.532V7.426C69.3877 8.15816 69.0449 8.83655 68.541 9.387C67.9521 10.0212 67.1792 10.4548 66.331 10.627H65.18V6.274H65.183L65.187 6.277ZM69.987 13.408C69.719 12.8717 69.3619 12.3848 68.931 11.968C68.5673 11.6156 68.153 11.3194 67.702 11.089C68.2653 10.8165 68.7724 10.4406 69.197 9.981C69.569 9.577 69.835 9.154 70.021 8.749C70.276 9.227 70.641 9.741 71.154 10.211C71.512 10.543 71.92 10.827 72.354 11.053C71.3364 11.5684 70.5071 12.3928 69.987 13.408ZM73.638 10.63C72.9389 10.425 72.2957 10.0635 71.757 9.573C71.1253 8.9876 70.6642 8.24177 70.423 7.415V6.285H74.772V10.634H73.638V10.63ZM74.754 5.403H70.419V0.904C71.5608 1.01007 72.6265 1.52263 73.4221 2.34836C74.2177 3.1741 74.6904 4.25809 74.754 5.403ZM69.54 0.904V5.403H65.205C65.2676 4.25759 65.7401 3.17291 66.5361 2.34695C67.3322 1.52099 68.3977 1.00884 69.54 0.904ZM64.313 6.292V10.627H59.815C59.922 9.48578 60.4348 8.42078 61.2601 7.62537C62.0854 6.82995 63.1686 6.35687 64.313 6.292ZM59.815 11.505H64.313V15.839C63.1681 15.7762 62.0839 15.3039 61.2582 14.5083C60.4325 13.7127 59.9203 12.6468 59.815 11.505ZM65.203 16.733H69.537V21.231C67.197 21.02 65.338 19.102 65.203 16.733ZM70.418 21.231V16.733H74.753C74.6891 17.8777 74.2164 18.9615 73.4208 19.787C72.6252 20.6125 71.5596 21.125 70.418 21.231ZM75.646 15.839V11.505H80.144C80.0387 12.6468 79.5265 13.7127 78.7008 14.5083C77.8751 15.3039 76.7909 15.7762 75.646 15.839ZM13.82 80.444H12.861V76.671H11.498V75.745H15.18V76.671H13.82V80.444ZM19.157 77.575V75.745H20.116V80.445H19.157V78.505H17.24V80.445H16.277V75.745H17.24V77.575H19.157ZM22.546 78.49V79.53H24.869V80.444H21.584V75.745H24.803V76.657H22.546V77.604H24.548V78.49H22.546ZM29.303 76.657V77.877H30.221C30.393 77.8844 30.561 77.8233 30.688 77.707C30.75 77.6525 30.7992 77.585 30.832 77.5093C30.8649 77.4335 30.8806 77.3515 30.878 77.269C30.881 77.186 30.8655 77.1034 30.8327 77.0271C30.7998 76.9508 30.7504 76.8828 30.688 76.828C30.5595 76.7141 30.3927 76.653 30.221 76.657H29.303ZM30.866 80.444L29.926 78.753H29.306V80.444H28.344V75.745H30.254C30.5527 75.745 30.8227 75.8107 31.064 75.942C31.3036 76.0681 31.5035 76.2583 31.6412 76.4914C31.779 76.7245 31.8492 76.9913 31.844 77.262C31.844 77.553 31.756 77.834 31.581 78.071C31.4057 78.3103 31.1687 78.4877 30.87 78.603L31.978 80.444H30.866ZM34.1 75.745H33.137V80.448H34.099L34.1 75.745ZM37.52 80.444H36.56V76.671H35.193V75.745H38.879V76.671H37.519L37.52 80.444ZM41.831 80.532C41.4623 80.5313 41.132 80.4487 40.84 80.284C40.5571 80.125 40.3257 79.8883 40.173 79.602C40.016 79.3059 39.9358 78.9751 39.94 78.64V75.745H40.898V78.64C40.8987 78.9207 40.9813 79.1527 41.146 79.336C41.3107 79.516 41.539 79.606 41.831 79.606C42.123 79.606 42.349 79.515 42.517 79.336C42.6866 79.1446 42.7764 78.8956 42.768 78.64V75.745H43.728V78.64C43.7273 78.9933 43.648 79.314 43.49 79.602C43.3333 79.8893 43.111 80.1167 42.823 80.284C42.5343 80.4487 42.2037 80.5313 41.831 80.532ZM47.424 78.589L46.852 76.941L46.28 78.589H47.424ZM49.09 80.444H48.08L47.738 79.478H45.962L45.62 80.444H44.647L46.397 75.745H47.337L49.083 80.445L49.09 80.444ZM53.191 80.444H50.05V75.745H51.012V79.518H53.192L53.191 80.444ZM58.542 79.606C58.786 79.606 59.0093 79.5403 59.212 79.409C59.4193 79.277 59.5847 79.096 59.708 78.866C59.8336 78.629 59.8975 78.3642 59.894 78.096C59.894 77.816 59.8323 77.561 59.709 77.331C59.5938 77.1099 59.4228 76.9227 59.213 76.788C59.0139 76.6572 58.7803 76.5886 58.542 76.591C58.298 76.591 58.079 76.657 57.872 76.788C57.6618 76.9225 57.4904 77.1097 57.375 77.331C57.2517 77.561 57.19 77.8163 57.19 78.097C57.19 78.377 57.252 78.637 57.375 78.866C57.4983 79.098 57.6637 79.279 57.871 79.409C58.0783 79.5403 58.3027 79.606 58.542 79.606ZM58.541 80.532C58.129 80.5313 57.7463 80.423 57.393 80.207C57.0347 79.9846 56.7397 79.6736 56.5366 79.304C56.3334 78.9344 56.2288 78.5187 56.233 78.097C56.2306 77.6759 56.3359 77.2612 56.539 76.8922C56.742 76.5233 57.036 76.2123 57.393 75.989C57.7368 75.773 58.135 75.6592 58.541 75.661C58.953 75.661 59.3357 75.7707 59.689 75.99C60.0423 76.2053 60.3243 76.5003 60.535 76.875C60.7437 77.247 60.848 77.6543 60.848 78.097C60.848 78.537 60.743 78.95 60.535 79.325C60.3338 79.6871 60.0424 79.9909 59.689 80.207C59.3442 80.4205 58.9465 80.5331 58.541 80.532ZM65.25 75.745V76.671H63.033V77.801H64.939V78.683H63.033V80.444H62.07V75.745H65.25ZM70.926 78.589L70.354 76.941L69.782 78.589H70.926ZM72.592 80.444H71.582L71.24 79.478H69.464L69.122 80.444H68.148L69.898 75.745H70.838L72.585 80.445L72.592 80.444ZM74.513 76.657V77.877H75.433C75.6047 77.8842 75.7722 77.823 75.899 77.707C75.961 77.6525 76.0102 77.585 76.043 77.5093C76.0759 77.4335 76.0916 77.3515 76.089 77.269C76.092 77.186 76.0765 77.1034 76.0437 77.0271C76.0108 76.9508 75.9614 76.8828 75.899 76.828C75.7705 76.7141 75.6037 76.653 75.432 76.657H74.513ZM76.077 80.444L75.137 78.753H74.517V80.444H73.555V75.745H75.465C75.7637 75.745 76.0337 75.8107 76.275 75.942C76.5146 76.0681 76.7145 76.2583 76.8522 76.4914C76.99 76.7245 77.0602 76.9913 77.055 77.262C77.055 77.553 76.967 77.834 76.792 78.071C76.6167 78.3103 76.3797 78.4877 76.081 78.603L77.189 80.444H76.077ZM80.299 80.444H79.34V76.671H77.977V75.745H81.659V76.671H80.299V80.444ZM85.93 75.745V76.671H83.714V77.801H85.621V78.683H83.714V80.444H82.752V75.745H85.93ZM88.982 80.532C88.6133 80.5313 88.2827 80.4487 87.99 80.284C87.7071 80.125 87.4757 79.8883 87.323 79.602C87.166 79.3059 87.0858 78.9751 87.09 78.64V75.745H88.049V78.64C88.049 78.9207 88.1313 79.1527 88.296 79.336C88.4607 79.516 88.6893 79.606 88.982 79.606C89.272 79.606 89.5003 79.516 89.667 79.336C89.8369 79.1448 89.9271 78.8957 89.919 78.64V75.745H90.878V78.64C90.878 78.9933 90.799 79.314 90.641 79.602C90.4837 79.8893 90.261 80.1167 89.973 80.284C89.6843 80.4487 89.354 80.5313 88.982 80.532ZM95.453 80.444H92.31V75.745H93.276V79.518H95.452L95.453 80.444ZM103.002 77.969V80.444H102.433L102.265 79.828C102.101 80.0361 101.893 80.2055 101.656 80.324C101.392 80.4632 101.098 80.5346 100.8 80.532C100.388 80.5313 100.005 80.423 99.651 80.207C99.2928 79.9845 98.9979 79.6735 98.7947 79.3039C98.5915 78.9344 98.4869 78.5187 98.491 78.097C98.492 77.652 98.598 77.251 98.806 76.875C99.013 76.5 99.298 76.205 99.651 75.99C99.995 75.7734 100.394 75.6593 100.8 75.661C101.175 75.6617 101.514 75.7397 101.817 75.895C102.12 76.051 102.366 76.255 102.557 76.507C102.746 76.7563 102.871 77.0163 102.932 77.287H101.933C101.85 77.0903 101.711 76.9228 101.532 76.806C101.337 76.6613 101.094 76.5897 100.803 76.591C100.563 76.591 100.34 76.6567 100.133 76.788C99.9222 76.9216 99.751 77.109 99.637 77.331C99.513 77.561 99.451 77.8163 99.451 78.097C99.451 78.377 99.513 78.637 99.637 78.866C99.751 79.088 99.9222 79.2754 100.133 79.409C100.34 79.5403 100.563 79.606 100.803 79.606C101.132 79.606 101.394 79.518 101.591 79.351C101.791 79.1797 101.92 78.9923 101.977 78.789H100.851V77.969H103.002ZM105.382 75.745H104.42V80.448H105.382V75.745ZM108.594 79.128L109.746 75.745H110.727L109.053 80.445H108.08L106.414 75.745H107.435L108.594 79.128ZM112.72 75.745H111.758V80.448H112.72V75.745ZM117.157 78.818V75.745H118.083V80.445H117.204L115.115 77.367V80.444H114.189V75.745H115.072L117.157 78.818ZM123.81 77.969V80.444H123.242L123.074 79.828C122.91 80.0361 122.702 80.2055 122.465 80.324C122.201 80.4633 121.906 80.5348 121.608 80.532C121.196 80.5313 120.813 80.423 120.46 80.207C120.106 79.992 119.814 79.6879 119.614 79.325C119.404 78.95 119.296 78.5266 119.301 78.097C119.298 77.676 119.403 77.2611 119.605 76.8922C119.808 76.5233 120.103 76.2127 120.46 75.99C120.804 75.7736 121.202 75.6595 121.608 75.661C121.984 75.6617 122.323 75.7397 122.625 75.895C122.929 76.051 123.176 76.255 123.365 76.507C123.554 76.7563 123.68 77.0163 123.741 77.287H122.742C122.672 77.109 122.538 76.9487 122.341 76.806C122.144 76.66 121.904 76.591 121.612 76.591C121.372 76.591 121.148 76.6567 120.941 76.788C120.73 76.9216 120.559 77.109 120.445 77.331C120.322 77.561 120.26 77.8163 120.26 78.097C120.26 78.377 120.322 78.637 120.445 78.866C120.568 79.098 120.734 79.279 120.941 79.409C121.148 79.5403 121.371 79.606 121.612 79.606C121.94 79.606 122.203 79.518 122.399 79.351C122.599 79.1797 122.728 78.9923 122.786 78.789H121.659V77.969H123.81ZM12.201 34.399C11.1383 34.399 10.3413 34.4827 9.81 34.65C9.281 34.818 8.884 35.175 8.629 35.718C8.37033 36.264 8.24133 37.1293 8.242 38.314V47.508H19.346V38.27C19.3467 37.0847 19.2253 36.228 18.982 35.7C18.742 35.1707 18.3553 34.822 17.822 34.654C17.29 34.486 16.467 34.402 15.344 34.402V33.629H27.724V34.402H27.407C26.4037 34.432 25.6527 34.5303 25.154 34.697C24.654 34.865 24.2747 35.2213 24.016 35.766C23.758 36.3127 23.6293 37.162 23.63 38.314V59.979C23.6293 61.1623 23.758 62.0273 24.016 62.574C24.276 63.121 24.676 63.474 25.223 63.642C25.7697 63.81 26.6043 63.894 27.727 63.894V64.667H15.347V63.894H15.756C16.7267 63.894 17.4617 63.7957 17.961 63.599C18.463 63.4023 18.819 63.023 19.029 62.461C19.2423 61.8997 19.3493 61.0723 19.35 59.979V49.239H8.246V59.979C8.24533 61.0723 8.35967 61.8997 8.589 62.461C8.819 63.023 9.172 63.401 9.657 63.599C10.143 63.795 10.8563 63.8933 11.797 63.894H12.205V64.667H0V63.894H0.408C1.31867 63.894 2.02367 63.7957 2.523 63.599C3.02567 63.4017 3.39 63.0297 3.616 62.483C3.842 61.936 3.959 61.101 3.959 59.979V38.314C3.95833 36.7353 3.708 35.689 3.208 35.175C2.708 34.657 1.85133 34.3983 0.638 34.399H0V33.626H12.201V34.399Z" fill="#0E2233"/>
<path d="M50.1987 56.016H50.2887V38.266C50.2894 37.114 50.1607 36.2647 49.9027 35.718C49.7887 35.461 49.6197 35.2321 49.4075 35.0475C49.1953 34.863 48.9451 34.7273 48.6747 34.6501C48.112 34.4821 47.3004 34.398 46.2397 34.398V33.626H55.2067V34.399C54.084 34.399 53.2724 34.642 52.7717 35.128C52.2717 35.612 52.0217 36.4004 52.0217 37.4931V65.166H51.3827L33.7247 39.9981H33.6337V59.9781C33.633 61.1007 33.7544 61.9431 33.9977 62.5051C34.2417 63.0661 34.6177 63.4311 35.1357 63.5951C35.6524 63.7631 36.3957 63.8614 37.3657 63.89H38.0007V64.6631H28.3987V63.89C29.6734 63.8287 30.576 63.5871 31.1067 63.1651C31.64 62.7384 31.9064 61.8877 31.9057 60.613V37.4931C31.771 37.3223 31.642 37.1472 31.5187 36.968C31.3697 36.7565 31.2105 36.5522 31.0417 36.356C30.4657 35.5667 29.988 35.0431 29.6087 34.7851C29.2287 34.5261 28.6027 34.399 27.7207 34.399V33.626H34.4577L50.2017 56.016H50.1987ZM80.5997 34.399C79.781 34.3984 79.1664 34.5271 78.7557 34.7851C78.3477 35.0404 78.1437 35.5034 78.1437 36.1741C78.143 36.5681 78.2497 37.1137 78.4637 37.8111L83.5167 55.834H83.6077L87.3847 43.045L85.8827 37.7191C85.5514 36.6264 85.1724 35.823 84.7457 35.309C84.3217 34.7924 83.579 34.489 82.5177 34.399V33.626H93.5307V34.399C92.3787 34.399 91.5327 34.5521 91.0047 34.8541C90.474 35.1581 90.209 35.7037 90.2097 36.4911C90.209 36.8851 90.3307 37.523 90.5747 38.405L95.3097 55.655H95.3977L100.086 39.0001C100.388 37.9994 100.54 37.2094 100.541 36.6301C100.541 35.8434 100.291 35.2747 99.7907 34.9241C99.2907 34.5741 98.4787 34.399 97.3547 34.399V33.627H105.321V34.4001C104.745 34.4621 104.274 34.61 103.91 34.855C103.545 35.095 103.221 35.522 102.933 36.127C102.645 36.733 102.331 37.644 102 38.857L94.3517 65.3461H93.5347L88.2997 46.2281H88.2087L82.5187 65.3451H81.8327L74.0497 38.1721C73.655 36.8367 73.2444 35.9047 72.8177 35.376C72.395 34.8427 71.7277 34.5157 70.8157 34.3951V33.6221H80.6007L80.5997 34.399ZM115.28 34.399C114.461 34.3984 113.846 34.5271 113.436 34.7851C113.028 35.0404 112.823 35.5034 112.823 36.1741C112.823 36.5681 112.93 37.1137 113.144 37.8111L118.197 55.834H118.288L122.065 43.045L120.563 37.7191C120.231 36.6264 119.851 35.823 119.425 35.309C119.001 34.7924 118.259 34.489 117.198 34.399V33.626H128.211V34.399C127.055 34.3997 126.213 34.5514 125.685 34.8541C125.152 35.1571 124.89 35.7041 124.89 36.4911C124.889 36.8851 125.01 37.523 125.254 38.405L129.99 55.655H130.077L134.765 39.0001C135.068 37.9994 135.22 37.2094 135.221 36.6301C135.221 35.8434 134.97 35.2747 134.47 34.9241C133.97 34.5741 133.158 34.399 132.035 34.399V33.627H140V34.4001C139.424 34.4621 138.954 34.61 138.59 34.855C138.225 35.095 137.901 35.522 137.613 36.127C137.323 36.7337 137.012 37.6437 136.679 38.857L129.031 65.3461H128.215L122.98 46.2291H122.889L117.198 65.3461H116.513L108.73 38.1731C108.335 36.8377 107.924 35.9057 107.497 35.377C107.074 34.8437 106.407 34.5167 105.496 34.3961V33.6231H115.28V34.399ZM58.7857 43.5411C58.7857 46.7424 59.1357 49.0634 59.8357 50.5041C60.5357 51.9434 61.6827 52.6627 63.2767 52.662C64.8697 52.662 66.1067 51.8971 66.7687 50.3581C67.4327 48.8227 67.7647 46.5494 67.7647 43.538C67.7647 40.2774 67.4 37.9431 66.6707 36.5351C65.9414 35.1237 64.8004 34.4177 63.2477 34.4171C61.9384 34.4164 60.9577 34.8951 60.3057 35.8531C59.6537 36.8081 59.2337 37.931 59.0557 39.218C58.8757 40.5047 58.7857 41.9447 58.7857 43.538M63.2767 33.425C64.9254 33.425 66.3264 33.904 67.4797 34.862C68.6364 35.8167 69.503 37.0667 70.0797 38.612C70.659 40.1554 70.948 41.7987 70.9467 43.5421C70.9467 45.2841 70.6557 46.9501 70.0797 48.4841C69.503 50.0174 68.6364 51.2631 67.4797 52.2211C66.325 53.1764 64.924 53.654 63.2767 53.654C61.6287 53.654 60.3097 53.1941 59.1537 52.2761C57.9977 51.3561 57.1167 50.1251 56.5107 48.5831C55.9017 47.0411 55.6027 45.3571 55.6027 43.5411C55.6027 41.7251 55.8907 40.155 56.4707 38.613C57.0474 37.067 57.914 35.8167 59.0707 34.862C60.2267 33.9034 61.6287 33.4244 63.2767 33.425ZM66.8277 56.1981H59.1757V57.412H66.8277V56.1981Z" fill="#0E2233"/>
</g>
<defs>
<clipPath id="clip0_583_2">
<rect width="140" height="81" fill="white"/>
</clipPath>
</defs>
</svg>
