<svg width="140" height="81" viewBox="0 0 140 81" fill="none" xmlns="http://www.w3.org/2000/svg">
<path d="M7.18286 78.8733L8.55239 75.9189H9.3119V80.1052H8.4866V77.6891L7.36228 80.1052H6.93767L5.8253 77.7131V80.1052H5V75.9189H5.81334L7.18286 78.8733Z" fill="white"/>
<path d="M13.9487 80.1052H13.0516L12.7466 79.2441H11.1678L10.8628 80.1052H9.99564L11.5565 75.9189H12.3938L13.9487 80.1052ZM12.4656 78.4546L11.9572 76.9835L11.4489 78.4546H12.4656Z" fill="white"/>
<path d="M16.011 80.1052H15.1558V76.7442H13.9418V75.9189H17.2251V76.7442H16.011V80.1052Z" fill="white"/>
<path d="M18.8825 78.3649V79.2919H20.9518V80.1052H18.0273V75.9189H20.892V76.7323H18.8825V77.5755H20.6647V78.3649H18.8825Z" fill="white"/>
<path d="M25.1244 80.1052H24.1376L23.3003 78.5982H22.7441V80.1052H21.8889V75.9189H23.5874C24.4007 75.9189 25.0047 76.4811 25.0047 77.2705C25.0047 77.8028 24.6698 78.2573 24.1376 78.4666L25.1244 80.1052ZM23.5635 76.7323H22.7441V77.8207H23.5635C23.8984 77.8207 24.1495 77.5935 24.1495 77.2765C24.1495 76.9595 23.8984 76.7323 23.5635 76.7323Z" fill="white"/>
<path d="M26.8452 80.1052H25.99V75.9189H26.8452V80.1052Z" fill="white"/>
<path d="M31.4812 80.1052H30.5842L30.2792 79.2441H28.7003L28.3953 80.1052H27.5282L29.0891 75.9189H29.9263L31.4812 80.1052ZM29.9981 78.4546L29.4898 76.9835L28.9814 78.4546H29.9981Z" fill="white"/>
<path d="M34.9643 80.1052H32.1655V75.9189H33.0207V79.2799H34.9643V80.1052Z" fill="white"/>
<path d="M38.2209 80.1052H37.3657V75.9189H38.2209V80.1052Z" fill="white"/>
<path d="M42.0017 78.658V75.9189H42.827V80.1052H42.0436L40.1837 77.3662V80.1052H39.3584V75.9189H40.1418L42.0017 78.658Z" fill="white"/>
<path d="M45.696 80.1052H44.8408V76.7442H43.6268V75.9189H46.9101V76.7442H45.696V80.1052Z" fill="white"/>
<path d="M48.5675 78.3649V79.2919H50.6368V80.1052H47.7123V75.9189H50.577V76.7323H48.5675V77.5755H50.3497V78.3649H48.5675Z" fill="white"/>
<path d="M54.3728 80.1052H51.5739V75.9189H52.4291V79.2799H54.3728V80.1052Z" fill="white"/>
<path d="M57.9482 80.1052H55.1493V75.9189H56.0045V79.2799H57.9482V80.1052Z" fill="white"/>
<path d="M59.58 80.1052H58.7248V75.9189H59.58V80.1052Z" fill="white"/>
<path d="M62.5953 78.6281V77.8985H64.5091V80.1052H64.0067L63.8572 79.555C63.6299 79.86 63.1575 80.183 62.5535 80.183C61.4351 80.183 60.4962 79.2201 60.4962 78.0121C60.4962 76.804 61.4351 75.8412 62.5535 75.8412C63.606 75.8412 64.2997 76.5947 64.4493 77.2885H63.5582C63.4565 77.0193 63.1216 76.6665 62.5535 76.6665C61.9076 76.6665 61.3514 77.2346 61.3514 78.0121C61.3514 78.7895 61.9076 79.3577 62.5535 79.3577C63.2053 79.3577 63.5163 78.9151 63.6 78.6281H62.5953Z" fill="white"/>
<path d="M66.4563 78.3649V79.2919H68.5255V80.1052H65.6011V75.9189H68.4657V76.7323H66.4563V77.5755H68.2385V78.3649H66.4563Z" fill="white"/>
<path d="M72.1061 78.658V75.9189H72.9314V80.1052H72.1479L70.288 77.3662V80.1052H69.4627V75.9189H70.2461L72.1061 78.658Z" fill="white"/>
<path d="M75.902 80.183C74.7837 80.183 73.8447 79.2201 73.8447 78.0121C73.8447 76.804 74.7837 75.8412 75.902 75.8412C76.9546 75.8412 77.6124 76.6366 77.7978 77.4081H76.9067C76.811 77.0552 76.4702 76.6665 75.902 76.6665C75.2561 76.6665 74.6999 77.2346 74.6999 78.0121C74.6999 78.7895 75.2561 79.3577 75.902 79.3577C76.4702 79.3577 76.811 78.969 76.9366 78.6221H77.8277C77.6483 79.3816 76.9785 80.183 75.902 80.183Z" fill="white"/>
<path d="M79.5654 78.3649V79.2919H81.6346V80.1052H78.7102V75.9189H81.5748V76.7323H79.5654V77.5755H81.3476V78.3649H79.5654Z" fill="white"/>
<path d="M82.8409 80.183C82.5658 80.183 82.3625 79.9737 82.3625 79.7046C82.3625 79.4354 82.5658 79.2261 82.8409 79.2261C83.116 79.2261 83.3194 79.4354 83.3194 79.7046C83.3194 79.9737 83.116 80.183 82.8409 80.183Z" fill="white"/>
<path d="M88.2378 78.8733L89.6073 75.9189H90.3668V80.1052H89.5415V77.6891L88.4172 80.1052H87.9926L86.8802 77.7131V80.1052H86.0549V75.9189H86.8683L88.2378 78.8733Z" fill="white"/>
<path d="M95.0037 80.1052H94.1066L93.8016 79.2441H92.2227L91.9177 80.1052H91.0506L92.6115 75.9189H93.4487L95.0037 80.1052ZM93.5205 78.4546L93.0122 76.9835L92.5038 78.4546H93.5205Z" fill="white"/>
<path d="M97.0754 80.1052H95.6879V75.9189H97.0754C98.2236 75.9189 99.1446 76.8519 99.1446 78.0121C99.1446 79.1783 98.1997 80.1052 97.0754 80.1052ZM96.5431 76.7442V79.2799H97.0754C97.7213 79.2799 98.2894 78.7357 98.2894 78.0121C98.2894 77.2885 97.7213 76.7442 97.0754 76.7442H96.5431Z" fill="white"/>
<path d="M100.913 78.3649V79.2919H102.982V80.1052H100.058V75.9189H102.922V76.7323H100.913V77.5755H102.695V78.3649H100.913Z" fill="white"/>
<path d="M107.101 80.183C106.126 80.183 105.528 79.579 105.492 78.7836H106.347C106.395 79.1364 106.634 79.4175 107.101 79.4175C107.543 79.4175 107.746 79.2142 107.746 78.9809C107.746 78.1855 105.587 78.5683 105.587 77.0552C105.587 76.3675 106.126 75.8412 107.047 75.8412C107.926 75.8412 108.512 76.4392 108.548 77.2047H107.693C107.669 76.8638 107.435 76.6067 107.047 76.6067C106.652 76.6067 106.443 76.81 106.443 77.0672C106.443 77.8566 108.602 77.4619 108.602 78.951C108.602 79.6448 108.063 80.183 107.101 80.183Z" fill="white"/>
<path d="M109.534 75.9189H111.131C111.956 75.9189 112.584 76.5289 112.584 77.3363C112.584 78.1437 111.956 78.7537 111.131 78.7537H110.389V80.1052H109.534V75.9189ZM110.389 77.9284H111.113C111.448 77.9284 111.729 77.6772 111.729 77.3363C111.729 76.9954 111.448 76.7442 111.113 76.7442H110.389V77.9284Z" fill="white"/>
<path d="M114.368 78.3649V79.2919H116.437V80.1052H113.512V75.9189H116.377V76.7323H114.368V77.5755H116.15V78.3649H114.368Z" fill="white"/>
<path d="M119.093 80.183C117.975 80.183 117.036 79.2201 117.036 78.0121C117.036 76.804 117.975 75.8412 119.093 75.8412C120.146 75.8412 120.804 76.6366 120.989 77.4081H120.098C120.002 77.0552 119.661 76.6665 119.093 76.6665C118.447 76.6665 117.891 77.2346 117.891 78.0121C117.891 78.7895 118.447 79.3577 119.093 79.3577C119.661 79.3577 120.002 78.969 120.128 78.6221H121.019C120.84 79.3816 120.17 80.183 119.093 80.183Z" fill="white"/>
<path d="M122.757 80.1052H121.901V75.9189H122.757V80.1052Z" fill="white"/>
<path d="M126.723 75.9189V76.7442H124.749V77.749H126.448V78.5384H124.749V80.1052H123.894V75.9189H126.723Z" fill="white"/>
<path d="M128.471 80.1052H127.616V75.9189H128.471V80.1052Z" fill="white"/>
<path d="M131.444 80.183C130.326 80.183 129.387 79.2201 129.387 78.0121C129.387 76.804 130.326 75.8412 131.444 75.8412C132.497 75.8412 133.155 76.6366 133.34 77.4081H132.449C132.353 77.0552 132.012 76.6665 131.444 76.6665C130.798 76.6665 130.242 77.2346 130.242 78.0121C130.242 78.7895 130.798 79.3577 131.444 79.3577C132.012 79.3577 132.353 78.969 132.479 78.6221H133.37C133.191 79.3816 132.521 80.183 131.444 80.183Z" fill="white"/>
<path d="M134.522 80.183C134.246 80.183 134.043 79.9737 134.043 79.7046C134.043 79.4354 134.246 79.2261 134.522 79.2261C134.797 79.2261 135 79.4354 135 79.7046C135 79.9737 134.797 80.183 134.522 80.183Z" fill="white"/>
<path d="M81.0673 11.0676C81.0673 8.02729 78.6613 5.54838 75.6538 5.4135C75.5226 2.406 73.0364 0 69.9997 0C66.9631 0 64.4769 2.406 64.3456 5.4135C61.3418 5.54473 58.9321 8.02364 58.9321 11.0676C58.9321 14.1115 61.3418 16.5868 64.3456 16.7217C64.4805 19.7292 66.9631 22.1352 69.9997 22.1352C73.0364 22.1352 75.5189 19.7255 75.6538 16.7217C78.6613 16.5905 81.0673 14.1043 81.0673 11.0676ZM80.1632 10.6301H75.6648V6.2957C78.0343 6.42329 79.9518 8.28247 80.1632 10.6301ZM74.7862 15.8577H70.4372V14.724C70.583 14.1881 70.8965 13.4189 71.5782 12.7226C72.2927 11.9935 73.0874 11.6654 73.6452 11.5123H74.7789V15.8541H74.7826L74.7862 15.8577ZM65.206 11.505H66.347C66.8792 11.6363 67.6448 11.9352 68.3374 12.6023C69.1248 13.3606 69.4347 14.2318 69.555 14.713V15.8504H65.2096V11.5014H65.206V11.505ZM65.206 6.27747H69.5513V7.42579C69.4456 7.94709 69.1941 8.69805 68.5598 9.38704C67.7833 10.2291 66.8573 10.5244 66.3506 10.6265H65.1987V6.27382H65.2023L65.206 6.27747ZM70.007 13.408C69.7737 12.9414 69.4347 12.4383 68.9498 11.968C68.5452 11.578 68.1223 11.2936 67.7213 11.0895C68.2098 10.8525 68.7348 10.5025 69.216 9.98125C69.5878 9.5766 69.8539 9.15373 70.0398 8.74909C70.295 9.22664 70.6595 9.74065 71.1736 10.2109C71.5308 10.5426 71.9391 10.827 72.3729 11.053C71.9099 11.29 71.4105 11.6217 70.9475 12.0993C70.532 12.5331 70.2257 12.9851 70.007 13.408ZM73.6561 10.6301C73.1567 10.4843 72.4385 10.1817 71.7751 9.57296C70.984 8.84387 70.6158 8.00541 70.4408 7.41485V6.28476H74.7898V10.6338H73.6561V10.6301ZM74.7716 5.40256H70.4372V0.904072C72.7812 1.11551 74.644 3.03302 74.7716 5.40256ZM69.5586 0.904072V5.40256H65.2242C65.3518 3.03302 67.2109 1.11551 69.5586 0.904072ZM64.331 6.29205V10.6265H59.8326C60.044 8.28247 61.9615 6.42329 64.331 6.29205ZM59.8326 11.505H64.331V15.8395C61.9615 15.7119 60.044 13.8527 59.8326 11.505ZM65.2205 16.7326H69.555V21.2311C67.2146 21.0197 65.3554 19.1022 65.2205 16.7326ZM70.4372 21.2311V16.7326H74.7716C74.644 19.1022 72.7848 21.016 70.4372 21.2311ZM75.6648 15.8395V11.505H80.1632C79.9518 13.8527 78.0343 15.7119 75.6648 15.8395Z" fill="white"/>
<path d="M12.2013 34.3984C11.1369 34.3984 10.3421 34.4823 9.80991 34.65C9.28132 34.8177 8.88397 35.1749 8.62879 35.7181C8.36996 36.2649 8.24237 37.1289 8.24237 38.3137V47.5075H19.3464V38.2699C19.3464 37.0851 19.2261 36.2285 18.9819 35.6999C18.7413 35.1713 18.3549 34.8213 17.8226 34.6536C17.2904 34.4859 16.4665 34.4021 15.3437 34.4021V33.6293H27.7237V34.4021H27.4065C26.404 34.4313 25.653 34.5297 25.1536 34.6974C24.6542 34.8651 24.2751 35.2223 24.0162 35.7655C23.7574 36.3123 23.6298 37.1617 23.6298 38.3137V59.9786C23.6298 61.1634 23.7574 62.0273 24.0162 62.5741C24.2751 63.121 24.6761 63.4746 25.2229 63.6423C25.7697 63.81 26.6045 63.8938 27.7273 63.8938V64.6666H15.3474V63.8938H15.7556C16.7253 63.8938 17.4617 63.7954 17.9611 63.5985C18.4642 63.4017 18.8178 63.0225 19.0293 62.4611C19.2407 61.8997 19.3501 61.0722 19.3501 59.9786V49.2391H8.24601V59.9786C8.24601 61.0722 8.35902 61.8997 8.58869 62.4611C8.81835 63.0225 9.17196 63.4017 9.6568 63.5985C10.1416 63.7954 10.8562 63.8938 11.7967 63.8938H12.205V64.6666H0V63.8938H0.408291C1.31965 63.8938 2.02323 63.7954 2.52265 63.5985C3.02573 63.4017 3.39027 63.0298 3.61629 62.483C3.84231 61.9362 3.95896 61.1014 3.95896 59.9786V38.3137C3.95896 36.7352 3.70743 35.6889 3.208 35.1749C2.70857 34.6573 1.85189 34.3984 0.637954 34.3984H0V33.6256H12.2013V34.3984Z" fill="white"/>
<path d="M50.1981 56.016H50.2892V38.2663C50.2892 37.1143 50.1616 36.2649 49.9028 35.7181C49.6476 35.1749 49.2357 34.8177 48.6743 34.65C48.1129 34.4823 47.2999 34.3984 46.2391 34.3984V33.6256H55.2069V34.3984C54.0841 34.3984 53.2712 34.6427 52.7718 35.1275C52.2723 35.6124 52.0208 36.3998 52.0208 37.4934V65.1661H51.3828L33.7243 39.9979H33.6331V59.9786C33.6331 61.1014 33.7534 61.9435 33.9977 62.5049C34.2419 63.0663 34.6174 63.4308 35.1351 63.5949C35.6527 63.7626 36.3964 63.861 37.3661 63.8902H38.0004V64.663H28.3983V63.8902C29.6742 63.8282 30.5746 63.5876 31.1068 63.1647C31.6391 62.7382 31.9052 61.8888 31.9052 60.6129V37.4934C31.7849 37.3403 31.6537 37.1653 31.5188 36.9685C31.3802 36.7716 31.2235 36.5675 31.0412 36.3561C30.4652 35.565 29.9877 35.0437 29.6086 34.7849C29.2294 34.526 28.6024 34.3984 27.7202 34.3984V33.6256H34.457L50.2017 56.016H50.1981Z" fill="white"/>
<path d="M80.6008 34.3985C79.7806 34.3985 79.1681 34.5261 78.7562 34.7849C78.3479 35.0401 78.1438 35.5031 78.1438 36.1738C78.1438 36.5675 78.2495 37.1144 78.4646 37.8106L83.5172 55.8338H83.6083L87.385 43.0455L85.8831 37.7195C85.5513 36.6259 85.1722 35.8239 84.7457 35.3099C84.3228 34.7922 83.5791 34.4896 82.5183 34.3985V33.6257H93.5312V34.3985C92.3793 34.3985 91.5335 34.5516 91.0049 34.8542C90.4727 35.1567 90.2102 35.7036 90.2102 36.491C90.2102 36.8847 90.3305 37.5226 90.5748 38.4048L95.3102 55.6551H95.3977L100.086 38.9991C100.388 37.9966 100.541 37.2091 100.541 36.6295C100.541 35.8421 100.29 35.2734 99.7905 34.9234C99.291 34.5735 98.4781 34.3985 97.3553 34.3985V33.6257H105.321V34.3985C104.745 34.4605 104.274 34.6099 103.91 34.8542C103.545 35.0948 103.221 35.5213 102.933 36.1264C102.645 36.7316 102.331 37.6429 102 38.8569L94.3515 65.3447H93.5349L88.3 46.228H88.2089L82.5183 65.3447H81.833L74.0499 38.1715C73.6562 36.8373 73.2443 35.9041 72.8178 35.3755C72.3949 34.8432 71.7278 34.5151 70.8164 34.3948V33.622H80.6008V34.3948V34.3985Z" fill="white"/>
<path d="M115.28 34.3985C114.46 34.3985 113.847 34.5261 113.435 34.7849C113.027 35.0401 112.823 35.5031 112.823 36.1738C112.823 36.5675 112.929 37.1144 113.144 37.8106L118.196 55.8338H118.287L122.064 43.0455L120.562 37.7195C120.231 36.6259 119.851 35.8239 119.425 35.3099C119.002 34.7922 118.258 34.4896 117.197 34.3985V33.6257H128.21V34.3985C127.055 34.3985 126.213 34.5516 125.684 34.8542C125.152 35.1567 124.889 35.7036 124.889 36.491C124.889 36.8847 125.01 37.5226 125.254 38.4048L129.989 55.6551H130.077L134.765 38.9991C135.068 37.9966 135.221 37.2091 135.221 36.6295C135.221 35.8421 134.969 35.2734 134.47 34.9234C133.97 34.5735 133.157 34.3985 132.034 34.3985V33.6257H140V34.3985C139.424 34.4605 138.954 34.6099 138.589 34.8542C138.224 35.0948 137.9 35.5213 137.612 36.1264C137.324 36.7316 137.011 37.6429 136.679 38.8569L129.031 65.3447H128.214L122.979 46.228H122.888L117.197 65.3447H116.512L108.729 38.1715C108.335 36.8373 107.923 35.9041 107.497 35.3755C107.074 34.8432 106.407 34.5151 105.496 34.3948V33.622H115.28V34.3948V34.3985Z" fill="white"/>
<path d="M58.7865 43.5413C58.7865 46.742 59.1364 49.0642 59.8364 50.5041C60.5363 51.9441 61.6846 52.6622 63.2777 52.6622C64.8707 52.6622 66.1066 51.8967 66.77 50.3583C67.4335 48.8236 67.7652 46.5488 67.7652 43.5377C67.7652 40.2786 67.4007 37.9419 66.6716 36.5347C65.9425 35.124 64.8015 34.4167 63.2485 34.4167C61.9398 34.4167 60.9592 34.8943 60.3066 35.853C59.6541 36.8081 59.2349 37.9309 59.0562 39.2178C58.8776 40.5046 58.7865 41.9446 58.7865 43.5377M63.2777 33.4252C64.9254 33.4252 66.3289 33.9027 67.4809 34.8615C68.6365 35.8166 69.5041 37.067 70.0801 38.6126C70.6597 40.1547 70.9477 41.7988 70.9477 43.5413C70.9477 45.2838 70.6561 46.9498 70.0801 48.4845C69.5041 50.0193 68.6365 51.2624 67.4809 52.2211C66.3253 53.1762 64.9254 53.6538 63.2777 53.6538C61.6299 53.6538 60.3103 53.1945 59.1547 52.2758C57.9991 51.3571 57.1169 50.125 56.5117 48.583C55.9029 47.0409 55.604 45.3567 55.604 43.5413C55.604 41.7259 55.892 40.1547 56.4716 38.6126C57.0476 37.067 57.9152 35.8166 59.0708 34.8615C60.2264 33.9027 61.6299 33.4252 63.2777 33.4252Z" fill="white"/>
<path d="M66.8286 56.1983H59.1768V57.4122H66.8286V56.1983Z" fill="white"/>
</svg>
