<svg width="310" height="81" viewBox="0 0 310 81" fill="none" xmlns="http://www.w3.org/2000/svg">
<path d="M25.9204 4.85999C14.309 4.85999 4.86035 14.3086 4.86035 25.92V55.08C4.86035 66.6914 14.309 76.14 25.9204 76.14H55.0804C66.6917 76.14 76.1404 66.6914 76.1404 55.08V25.92C76.1404 14.3086 66.6917 4.85999 55.0804 4.85999H25.9204ZM25.9204 8.09999H55.0804C64.9405 8.09999 72.9004 16.0599 72.9004 25.92V55.08C72.9004 64.9401 64.9405 72.9 55.0804 72.9H25.9204C16.0602 72.9 8.10035 64.9401 8.10035 55.08V25.92C8.10035 16.0599 16.0602 8.09999 25.9204 8.09999ZM59.9404 17.82C59.0811 17.82 58.2569 18.1613 57.6493 18.769C57.0417 19.3766 56.7004 20.2007 56.7004 21.06C56.7004 21.9193 57.0417 22.7434 57.6493 23.351C58.2569 23.9586 59.0811 24.3 59.9404 24.3C60.7997 24.3 61.6238 23.9586 62.2314 23.351C62.839 22.7434 63.1804 21.9193 63.1804 21.06C63.1804 20.2007 62.839 19.3766 62.2314 18.769C61.6238 18.1613 60.7997 17.82 59.9404 17.82ZM40.5004 22.68C30.6778 22.68 22.6804 30.6775 22.6804 40.5C22.6804 50.3225 30.6778 58.32 40.5004 58.32C50.3229 58.32 58.3204 50.3225 58.3204 40.5C58.3204 30.6775 50.3229 22.68 40.5004 22.68ZM40.5004 25.92C48.5718 25.92 55.0804 32.4285 55.0804 40.5C55.0804 48.5715 48.5718 55.08 40.5004 55.08C32.4289 55.08 25.9204 48.5715 25.9204 40.5C25.9204 32.4285 32.4289 25.92 40.5004 25.92Z" fill="#0E2233"/>
<path d="M106.961 13.9317C102.718 15.7184 98.0485 20.7665 96.574 27.1029C94.7072 35.1311 102.476 38.5263 103.113 37.4129C103.863 36.1049 101.721 35.6625 101.28 31.4971C100.71 26.1172 103.197 20.1053 106.328 17.4678C106.91 16.978 106.882 17.66 106.882 18.9214L106.758 45.6576C106.758 51.3772 106.524 53.1837 106.102 54.968C105.674 56.7766 104.987 57.999 105.508 58.4693C106.09 58.996 108.574 57.7433 110.012 55.7248C111.737 53.304 112.341 50.3968 112.449 47.2394C112.58 43.4335 112.575 37.3942 112.58 33.949L112.528 15.9765C112.502 14.6124 108.739 13.1812 106.963 13.9291M257.722 40.6977C257.585 43.6713 256.931 45.9952 256.119 47.6347C254.546 50.8084 251.282 51.7938 249.896 47.2318C249.141 44.7449 249.106 40.5916 249.649 37.1211C250.199 33.5859 251.744 30.9157 254.3 31.1566C256.82 31.3947 258 34.66 257.723 40.698L257.722 40.6977ZM215.23 59.1466C215.196 64.0872 214.423 68.4191 212.764 69.6799C210.412 71.464 207.251 70.1257 207.905 66.5204C208.485 63.3302 211.224 60.0722 215.237 56.0914L215.23 59.1492L215.23 59.1466ZM214.588 40.6698C214.443 43.3779 213.745 46.0987 212.984 47.636C211.411 50.8097 208.124 51.802 206.761 47.2331C205.83 44.1113 206.053 40.071 206.514 37.5253C207.112 34.2223 208.562 31.1579 211.165 31.1579C213.697 31.1579 214.944 33.9501 214.588 40.6701L214.588 40.6698ZM189.973 40.6285C189.818 43.4967 189.262 45.8946 188.369 47.6358C186.753 50.7879 183.557 51.7872 182.147 47.2329C181.13 43.9486 181.476 39.4706 181.899 37.0516C182.527 33.4618 184.098 30.9167 186.551 31.1582C189.07 31.4057 190.295 34.6613 189.973 40.629L189.973 40.6285ZM302.777 43.9786C302.161 43.9786 301.88 44.6169 301.648 45.6913C300.841 49.4272 299.993 50.2733 298.898 50.2733C297.676 50.2733 296.579 48.4234 296.297 44.7204C296.075 41.8087 296.111 36.448 296.394 31.1158C296.452 30.0203 296.151 28.9362 293.229 27.8689C291.971 27.4096 290.143 26.7339 289.233 28.9428C286.661 35.1838 285.655 40.1389 285.418 42.1516C285.406 42.2559 285.279 42.2769 285.257 42.0336C285.106 40.4215 284.769 37.4919 284.727 31.3365C284.719 30.1357 284.466 29.1134 283.147 28.2765C282.292 27.7335 279.694 26.7729 278.759 27.9158C277.949 28.8506 277.01 31.3654 276.035 34.3464L274.691 38.4083L274.711 29.391C274.715 28.4553 274.077 28.1438 273.884 28.0875C273.018 27.8347 271.312 27.4123 270.584 27.4123C269.69 27.4123 269.472 27.9147 269.472 28.6465L269.33 43.2054L269.333 44.0455C268.838 46.781 267.235 50.4945 265.492 50.4945C263.746 50.4945 262.925 48.9422 262.925 41.8466C262.925 37.7076 263.049 35.9077 263.109 32.9144L263.209 29.5653C263.196 28.6436 261.611 28.1794 260.874 28.0077C260.132 27.8347 259.489 27.7675 258.986 27.7962C258.275 27.8365 257.771 28.306 257.771 28.9515L257.775 29.9558C256.858 28.5075 255.384 27.5 254.404 27.2079C251.762 26.4192 249.006 27.1184 246.926 30.0432C245.274 32.3674 244.278 35 243.888 38.7822C243.602 41.5472 243.695 44.3512 244.204 46.7225C243.589 49.398 242.446 50.4945 241.195 50.4945C239.379 50.4945 238.062 47.5136 238.215 42.3575C238.316 38.9663 238.99 36.5863 239.729 33.1435C240.043 31.6756 239.787 30.9072 239.147 30.171C238.559 29.4955 237.306 29.1505 235.505 29.575C234.222 29.8779 232.388 30.2031 230.71 30.453C230.71 30.453 230.812 30.0469 230.895 29.3307C231.331 25.5755 227.273 25.8799 225.977 27.0792C225.205 27.7954 224.678 28.6399 224.479 30.1586C224.162 32.5686 226.117 33.7052 226.117 33.7052C225.475 36.6545 223.903 40.5134 222.28 43.301C221.41 44.7946 220.745 45.9017 219.887 47.0783L219.88 45.7661L219.979 32.9154L220.079 29.6016C220.069 28.9275 219.678 28.6731 218.864 28.3508C218.143 28.0659 217.292 27.8684 216.41 27.7996C215.295 27.7122 214.623 28.3066 214.641 29.0094C214.645 29.1421 214.645 29.9569 214.645 29.9569C213.728 28.5085 212.254 27.501 211.273 27.209C208.632 26.4206 205.876 27.1195 203.796 30.0443C202.144 32.3685 201.062 35.6301 200.758 38.7543C200.47 41.6663 200.525 44.1408 200.914 46.2251C200.494 48.3125 199.287 50.4953 197.921 50.4953C196.176 50.4953 195.182 48.9429 195.182 41.8474C195.182 37.7084 195.306 35.9085 195.367 32.9152L195.466 29.5661C195.453 28.6444 193.868 28.1802 193.131 28.0082C192.359 27.8291 191.69 27.7628 191.182 27.8007C190.507 27.8513 190.032 28.459 190.032 28.912V29.9563C189.115 28.508 187.641 27.5005 186.661 27.2085C184.019 26.42 181.278 27.1302 179.183 30.0438C177.817 31.9437 176.712 34.0499 176.145 38.7127C175.981 40.0602 175.908 41.3218 175.917 42.5013C175.373 45.8504 172.967 49.7103 170.999 49.7103C169.848 49.7103 168.751 47.4646 168.751 42.6788C168.751 36.3035 169.143 27.2272 169.21 26.3521L172.177 26.3039C173.417 26.2902 174.541 26.3197 176.192 26.2347C177.021 26.1925 177.819 23.2026 176.964 22.8324C176.576 22.6649 173.837 22.5182 172.751 22.4953C171.838 22.4743 169.297 22.2854 169.297 22.2854L169.578 15.6244C169.623 15.0941 168.94 14.8213 168.549 14.6554C167.597 14.2506 166.745 14.0568 165.736 13.8477C164.341 13.5586 163.709 13.8414 163.585 15.0248C163.402 16.8207 163.302 22.0811 163.302 22.0811C162.279 22.0811 158.783 21.8799 157.76 21.8799C156.809 21.8799 155.782 25.9924 157.097 26.0432L162.994 26.2065L162.919 39.1591C161.957 44.2 158.569 46.9232 158.569 46.9232C159.297 43.5883 157.81 41.084 155.133 38.9639C154.147 38.1826 152.2 36.7037 150.021 35.0832C150.021 35.0832 151.283 33.8329 152.404 31.3175C153.197 29.5355 153.231 27.4965 151.285 27.0468C148.069 26.3034 145.418 28.6776 144.628 31.2127C144.015 33.1764 144.342 34.6334 145.542 36.1476C145.629 36.2582 145.724 36.3714 145.822 36.4846C145.096 37.8914 144.099 39.7853 143.255 41.2536C140.911 45.3313 139.14 48.5566 137.802 48.5566C136.732 48.5566 136.747 45.2821 136.747 42.2161C136.747 39.573 136.94 35.5993 137.096 31.4853C137.147 30.1246 136.47 29.3496 135.336 28.6473C134.647 28.2207 133.175 27.3823 132.324 27.3823C131.048 27.3823 127.37 27.5566 123.894 37.6665C123.456 38.941 122.595 41.2626 122.595 41.2626L122.669 29.1052C122.669 28.8203 122.518 28.5443 122.172 28.3561C121.586 28.0364 120.024 27.3823 118.631 27.3823C117.968 27.3823 117.637 27.6922 117.637 28.31L117.516 47.3306C117.516 48.7757 117.554 50.4642 117.696 51.1989C117.838 51.9336 118.067 52.5377 118.351 52.8948C118.635 53.2519 118.962 53.5236 119.504 53.6358C120.007 53.7401 122.764 54.0961 122.908 53.0367C123.08 51.7675 123.086 50.3936 124.534 45.2721C126.788 37.2983 129.727 33.4076 131.109 32.0259C131.35 31.7844 131.626 31.7699 131.613 32.1654L131.207 41.993C130.832 51.9247 132.629 53.7656 135.197 53.7656C137.162 53.7656 139.931 51.803 142.897 46.8347L147.836 38.5147L150.755 41.2165C153.1 43.454 153.869 45.5804 153.359 47.597C152.968 49.1391 151.496 50.7307 148.878 49.1836C148.115 48.7333 147.789 48.3849 147.022 47.8767C146.61 47.6039 145.98 47.5223 145.602 47.8082C144.622 48.5514 144.061 49.4967 143.741 50.6672C143.429 51.8062 144.564 52.4079 145.74 52.9319C146.752 53.3848 148.929 53.7956 150.316 53.8425C155.724 54.0269 160.056 51.2171 163.071 43.9767C163.611 50.2299 165.908 53.7685 169.899 53.7685C172.568 53.7685 175.243 50.3004 176.413 46.8887C176.749 48.2791 177.246 49.4888 177.888 50.5114C180.964 55.4109 186.93 54.356 189.927 50.1959C190.854 48.9103 190.995 48.4484 190.995 48.4484C191.432 52.3768 194.579 53.7493 196.38 53.7493C198.397 53.7493 200.481 52.7902 201.941 49.4851C202.112 49.8438 202.298 50.1864 202.502 50.5111C205.578 55.4107 211.544 54.3558 214.541 50.1956C214.668 50.0207 214.792 49.8436 214.913 49.6645L215.001 52.2451L212.241 54.7895C207.622 59.0502 204.11 62.2831 203.852 66.0478C203.52 70.8483 207.392 72.6319 210.321 72.8655C213.432 73.1138 216.096 71.3855 217.733 68.9681C219.173 66.8399 220.116 62.2589 220.047 57.7349L219.938 51.1505C221.562 49.2545 223.391 46.8589 225.075 44.0544C226.91 40.9982 228.878 36.8939 229.885 33.6996C229.885 33.6996 231.594 33.7144 233.418 33.5943C234.001 33.5561 234.169 33.6759 234.061 34.1057C233.931 34.6252 231.757 43.0564 233.741 48.6733C235.099 52.518 238.16 53.7556 239.976 53.7556C242.1 53.7556 244.133 52.1422 245.222 49.7464C245.353 50.0134 245.491 50.272 245.641 50.5106C248.716 55.4101 254.662 54.3492 257.679 50.1951C258.36 49.2576 258.747 48.4476 258.747 48.4476C259.395 52.5135 262.54 53.7696 264.341 53.7696C266.217 53.7696 267.998 52.9962 269.443 49.5589C269.503 51.0723 269.598 52.3097 269.748 52.6997C269.84 52.9382 270.373 53.2376 270.761 53.3825C272.477 54.0224 274.227 53.7195 274.872 53.5879C275.321 53.4965 275.671 53.1349 275.718 52.2001C275.844 49.7464 275.767 45.6236 276.504 42.5595C277.746 37.4174 278.905 35.4231 279.454 34.4356C279.761 33.8826 280.109 33.791 280.121 34.3767C280.148 35.5617 280.206 39.0403 280.687 43.7153C281.041 47.1531 281.512 49.1852 281.875 49.8283C282.91 51.6674 284.189 51.7546 285.227 51.7546C285.89 51.7546 287.275 51.5702 287.151 50.4002C287.091 49.8298 287.196 46.3043 288.421 41.2383C289.22 37.9301 290.553 34.941 291.034 33.8481C291.211 33.4452 291.294 33.7628 291.291 33.8244C291.189 36.1028 290.962 43.5546 291.885 47.6302C293.136 53.1515 296.756 53.7693 298.018 53.7693C300.71 53.7693 302.913 51.71 303.655 46.2906C303.834 44.9864 303.569 43.9794 302.776 43.9794" fill="#0E2233"/>
</svg>
