<svg xmlns="http://www.w3.org/2000/svg" width="140" height="81" fill="none"><path fill="#0D5E4C" d="M81.05 11.068c0-3.04-2.407-5.52-5.414-5.654A5.67 5.67 0 0 0 69.982 0a5.67 5.67 0 0 0-5.654 5.414 5.666 5.666 0 0 0-5.414 5.654c0 3.044 2.41 5.519 5.414 5.654.134 3.007 2.617 5.413 5.654 5.413s5.519-2.41 5.654-5.413a5.67 5.67 0 0 0 5.413-5.654m-.905-.438h-4.498V6.296a4.78 4.78 0 0 1 4.498 4.334m-5.377 5.228H70.42v-1.134a4.6 4.6 0 0 1 1.141-2.001 4.6 4.6 0 0 1 2.067-1.21h1.134v4.341h.004zm-9.58-4.353h1.14c.533.131 1.299.43 1.991 1.097a4.45 4.45 0 0 1 1.218 2.111v1.137H65.19v-4.349h-.003zm0-5.228h4.345v1.149a4.07 4.07 0 0 1-.991 1.961 4.14 4.14 0 0 1-2.21 1.24h-1.151V6.274h.003zm4.8 7.131a5.3 5.3 0 0 0-1.056-1.44 5.1 5.1 0 0 0-1.229-.879 5 5 0 0 0 1.495-1.108c.372-.404.638-.827.824-1.232.255.478.62.992 1.133 1.462.358.332.766.616 1.2.842a5.4 5.4 0 0 0-2.366 2.355m3.65-2.778a4.8 4.8 0 0 1-1.881-1.057 4.76 4.76 0 0 1-1.334-2.158v-1.13h4.349v4.349h-1.134zm1.116-5.227h-4.335V.904a4.785 4.785 0 0 1 4.335 4.499M69.54.904v4.499h-4.335A4.78 4.78 0 0 1 69.541.904m-5.228 5.388v4.335h-4.498a4.79 4.79 0 0 1 4.498-4.335m-4.498 5.213h4.498v4.334a4.78 4.78 0 0 1-4.498-4.334m5.388 5.228h4.334v4.498c-2.34-.211-4.2-2.129-4.335-4.498m5.216 4.498v-4.498h4.335a4.785 4.785 0 0 1-4.335 4.498m5.228-5.392v-4.334h4.498a4.78 4.78 0 0 1-4.498 4.334M13.82 80.444h-.959v-3.773h-1.363v-.926h3.682v.926h-1.36zM19.157 77.575v-1.83h.959v4.7h-.959v-1.94H17.24v1.94h-.963v-4.7h.963v1.83zM22.546 78.49v1.04h2.323v.914h-3.285v-4.699h3.219v.912h-2.257v.947h2.002v.886zM29.303 76.657v1.22h.918a.65.65 0 0 0 .467-.17.56.56 0 0 0 .19-.438.56.56 0 0 0-.19-.441.68.68 0 0 0-.467-.171zm1.563 3.787-.94-1.691h-.62v1.691h-.962v-4.699h1.91q.448 0 .81.197a1.46 1.46 0 0 1 .78 1.32c0 .291-.088.572-.263.809q-.263.359-.711.532l1.108 1.841zM34.1 75.745h-.963v4.703h.962zM37.52 80.444h-.96v-3.773h-1.367v-.926h3.686v.926h-1.36zM41.831 80.532q-.553-.001-.991-.248a1.7 1.7 0 0 1-.667-.682 2 2 0 0 1-.233-.962v-2.895h.958v2.895q.001.421.248.696.247.27.685.27c.292 0 .518-.091.686-.27a1 1 0 0 0 .251-.696v-2.895h.96v2.895q-.001.53-.238.962-.235.431-.667.682-.433.247-.992.248M47.424 78.589l-.572-1.648-.572 1.648zm1.666 1.855h-1.01l-.342-.966h-1.776l-.342.966h-.973l1.75-4.699h.94l1.746 4.7zM53.191 80.444H50.05v-4.699h.962v3.773h2.18zM58.542 79.606q.366 0 .67-.197.311-.198.496-.543a1.6 1.6 0 0 0 .186-.77q0-.42-.185-.765a1.43 1.43 0 0 0-.496-.543 1.2 1.2 0 0 0-.671-.197c-.244 0-.463.066-.67.197a1.43 1.43 0 0 0-.497.543q-.185.345-.185.766c0 .28.062.54.185.769q.185.348.496.543.311.197.67.197m0 .926q-.618-.001-1.148-.325a2.455 2.455 0 0 1-1.16-2.11 2.47 2.47 0 0 1 1.16-2.108 2.14 2.14 0 0 1 1.148-.328q.618 0 1.148.329.53.323.846.885.313.558.313 1.222c0 .44-.105.853-.313 1.228a2.4 2.4 0 0 1-.846.882 2.17 2.17 0 0 1-1.148.325M65.25 75.745v.926h-2.217v1.13h1.906v.882h-1.906v1.761h-.963v-4.699zM70.926 78.589l-.572-1.648-.572 1.648zm1.666 1.855h-1.01l-.342-.966h-1.776l-.342.966h-.974l1.75-4.699h.94l1.747 4.7zM74.513 76.657v1.22h.92a.65.65 0 0 0 .466-.17.56.56 0 0 0 .19-.438.56.56 0 0 0-.19-.441.68.68 0 0 0-.467-.171zm1.564 3.787-.94-1.691h-.62v1.691h-.962v-4.699h1.91q.448 0 .81.197a1.46 1.46 0 0 1 .78 1.32c0 .291-.088.572-.263.809q-.263.359-.711.532l1.108 1.841zM80.299 80.444h-.959v-3.773h-1.363v-.926h3.682v.926h-1.36zM85.93 75.745v.926h-2.216v1.13h1.907v.882h-1.907v1.761h-.962v-4.699zM88.982 80.532q-.553-.001-.992-.248a1.7 1.7 0 0 1-.667-.682 2 2 0 0 1-.233-.962v-2.895h.959v2.895q0 .421.247.696.247.27.686.27.435 0 .685-.27a1 1 0 0 0 .252-.696v-2.895h.959v2.895q0 .53-.237.962-.236.431-.668.682-.433.247-.991.248M95.453 80.444H92.31v-4.699h.966v3.773h2.176zM103.002 77.969v2.475h-.569l-.168-.616a1.8 1.8 0 0 1-.609.496 1.8 1.8 0 0 1-.856.208q-.618-.001-1.149-.325a2.456 2.456 0 0 1-1.16-2.11c.001-.445.107-.846.315-1.222.207-.375.492-.67.845-.885a2.14 2.14 0 0 1 1.149-.329q.562.001 1.017.234.454.234.74.612.283.374.375.78h-.999a1.07 1.07 0 0 0-.401-.481q-.293-.217-.729-.215-.36 0-.67.197a1.4 1.4 0 0 0-.496.543q-.186.345-.186.766c0 .28.062.54.186.769a1.4 1.4 0 0 0 .496.543q.31.197.67.197c.329 0 .591-.088.788-.255q.3-.257.386-.562h-1.126v-.82zM105.382 75.745h-.962v4.703h.962zM108.594 79.128l1.152-3.383h.981l-1.674 4.7h-.973l-1.666-4.7h1.021zM112.72 75.745h-.962v4.703h.962zM117.157 78.818v-3.073h.926v4.7h-.879l-2.089-3.078v3.077h-.926v-4.699h.883zM123.81 77.969v2.475h-.568l-.168-.616a1.8 1.8 0 0 1-.609.496 1.8 1.8 0 0 1-.857.208q-.618-.001-1.148-.325a2.37 2.37 0 0 1-.846-.882 2.46 2.46 0 0 1-.313-1.228 2.46 2.46 0 0 1 1.159-2.107 2.14 2.14 0 0 1 1.148-.329q.564.001 1.017.234.456.234.74.612.284.374.376.78h-.999q-.105-.267-.401-.481c-.197-.146-.437-.215-.729-.215q-.36 0-.671.197a1.4 1.4 0 0 0-.496.543q-.185.345-.185.766c0 .28.062.54.185.769q.185.348.496.543.31.197.671.197c.328 0 .591-.088.787-.255q.3-.257.387-.562h-1.127v-.82zM12.201 34.399q-1.594 0-2.391.251c-.529.168-.926.525-1.181 1.068q-.388.819-.387 2.596v9.194h11.104V38.27q.001-1.778-.364-2.57-.36-.794-1.16-1.046c-.532-.168-1.355-.252-2.478-.252v-.773h12.38v.773h-.317q-1.505.045-2.253.295-.75.252-1.138 1.069-.387.82-.386 2.548v21.665q-.001 1.775.386 2.595c.26.547.66.9 1.207 1.068q.82.252 2.504.252v.773h-12.38v-.773h.409q1.456 0 2.205-.295.753-.295 1.068-1.138.32-.842.321-2.482v-10.74H8.246v10.74q-.001 1.64.343 2.482c.23.562.583.94 1.068 1.138q.729.294 2.14.295h.408v.773H0v-.773h.408q1.366 0 2.115-.295.754-.296 1.093-1.116c.226-.547.343-1.382.343-2.504V38.314q-.001-2.368-.751-3.139-.75-.777-2.57-.776H0v-.773h12.201z"/><path fill="#0D5E4C" d="M50.199 56.016h.09v-17.75q.001-1.728-.386-2.548a1.92 1.92 0 0 0-1.228-1.068q-.844-.252-2.435-.252v-.772h8.967v.773q-1.684 0-2.435.729-.75.726-.75 2.365v27.673h-.639L33.725 39.998h-.091v19.98q-.001 1.684.364 2.527c.244.561.62.926 1.138 1.09q.775.252 2.23.295h.635v.773h-9.602v-.773q1.912-.092 2.708-.725.8-.64.799-2.552v-23.12a10 10 0 0 1-.387-.525 8 8 0 0 0-.477-.612q-.864-1.184-1.433-1.571c-.38-.259-1.006-.386-1.888-.386v-.773h6.737l15.744 22.39zM80.6 34.399q-1.228-.001-1.844.386-.612.383-.612 1.389-.001.591.32 1.637l5.053 18.023h.091l3.777-12.789-1.502-5.326q-.497-1.639-1.137-2.41-.636-.775-2.228-.91v-.773h11.013v.773c-1.152 0-1.998.153-2.526.455q-.796.456-.795 1.637-.001.591.365 1.914l4.735 17.25h.088L100.086 39q.454-1.501.455-2.37 0-1.18-.75-1.706-.75-.525-2.436-.525v-.772h7.966v.773c-.576.062-1.047.21-1.411.455-.365.24-.689.667-.977 1.272-.288.606-.602 1.517-.933 2.73l-7.648 26.489h-.817L88.3 46.228h-.091l-5.69 19.117h-.686L74.05 38.172q-.592-2.003-1.232-2.796-.634-.8-2.002-.981v-.773h9.785zM115.28 34.399q-1.228-.001-1.844.386-.612.383-.613 1.389 0 .591.321 1.637l5.053 18.023h.091l3.777-12.789-1.502-5.326q-.498-1.639-1.138-2.41-.635-.775-2.227-.91v-.773h11.013v.773q-1.734.001-2.526.455c-.533.303-.795.85-.795 1.637q-.001.591.364 1.914l4.736 17.25h.087L134.765 39q.455-1.501.456-2.37 0-1.18-.751-1.706-.75-.525-2.435-.525v-.772H140v.773c-.576.062-1.046.21-1.41.455-.365.24-.689.667-.977 1.272q-.434.91-.934 2.73l-7.648 26.489h-.816l-5.235-19.117h-.091l-5.691 19.117h-.685l-7.783-27.173q-.592-2.003-1.233-2.796-.634-.8-2.001-.981v-.773h9.784zM58.786 43.541q0 4.802 1.05 6.963 1.05 2.159 3.441 2.158c1.593 0 2.83-.765 3.492-2.304q.996-2.303.996-6.82 0-4.891-1.094-7.003-1.094-2.117-3.423-2.118-1.964-.001-2.942 1.436c-.652.955-1.072 2.078-1.25 3.365q-.27 1.93-.27 4.32m4.491-10.113q2.473 0 4.203 1.437 1.735 1.432 2.6 3.75.869 2.315.867 4.93c0 1.742-.291 3.408-.867 4.942q-.865 2.3-2.6 3.737-1.732 1.433-4.203 1.433c-1.648 0-2.967-.46-4.123-1.378q-1.734-1.38-2.643-3.693c-.609-1.542-.908-3.226-.908-5.042s.288-3.386.868-4.928q.865-2.319 2.6-3.751 1.734-1.438 4.206-1.437M66.828 56.198h-7.652v1.214h7.652z"/></svg>