<svg xmlns="http://www.w3.org/2000/svg" width="400" height="230" fill="none"><path fill="#D0C2AA" d="M231.478 31.61c0-8.684-6.871-15.764-15.461-16.149C215.643 6.871 208.542 0 199.869 0s-15.773 6.872-16.148 15.461c-8.579.375-15.461 7.455-15.461 16.148 0 8.694 6.882 15.763 15.461 16.148.385 8.59 7.475 15.462 16.148 15.462s15.763-6.882 16.148-15.461c8.59-.375 15.461-7.476 15.461-16.149m-2.582-1.25h-12.847V17.98c6.767.365 12.244 5.675 12.847 12.38M213.54 45.29h-12.421v-3.238a13.07 13.07 0 0 1 3.258-5.716 13.1 13.1 0 0 1 5.904-3.456h3.238v12.4h.01zm-27.362-12.431h3.259a12.56 12.56 0 0 1 5.685 3.133c2.248 2.166 3.133 4.654 3.477 6.029v3.248h-12.41V32.85h-.011zm0-14.93h12.411v3.28c-.302 1.488-1.021 3.633-2.832 5.6-2.218 2.406-4.862 3.249-6.31 3.54h-3.29V17.92h.011zm13.712 20.364a15.2 15.2 0 0 0-3.019-4.112 14.6 14.6 0 0 0-3.509-2.51 14.2 14.2 0 0 0 4.269-3.164 13.6 13.6 0 0 0 2.353-3.52 15.7 15.7 0 0 0 3.238 4.176c1.02.947 2.186 1.76 3.425 2.405a15.4 15.4 0 0 0-4.071 2.988 16.2 16.2 0 0 0-2.686 3.737m10.422-7.933a13.7 13.7 0 0 1-5.372-3.02c-2.26-2.082-3.311-4.476-3.811-6.163v-3.228h12.421V30.37h-3.238zm3.186-14.93h-12.379V2.582c6.694.604 12.014 6.08 12.379 12.848M198.609 2.582V15.43H186.23c.365-6.768 5.674-12.244 12.379-12.848m-14.93 15.388v12.38h-12.847c.603-6.695 6.08-12.005 12.847-12.38M170.832 32.86h12.847v12.379c-6.767-.364-12.244-5.674-12.847-12.38m15.388 14.93h12.379v12.847c-6.684-.603-11.994-6.08-12.379-12.847m14.899 12.847V47.79h12.379c-.365 6.767-5.674 12.233-12.379 12.847m14.93-15.398v-12.38h12.847c-.603 6.706-6.08 12.016-12.847 12.38M39.47 229.749H36.73v-10.775h-3.894v-2.645h10.516v2.645h-3.884zM54.713 221.556v-5.227h2.738v13.42h-2.739v-5.538h-5.476v5.538h-2.749v-13.42h2.75v5.227zM64.394 224.169v2.967h6.632v2.613h-9.38v-13.42h9.193v2.603h-6.445v2.707h5.716v2.53zM83.688 218.932v3.488h2.623c.531 0 .979-.156 1.333-.49.364-.322.541-.739.541-1.249s-.177-.937-.541-1.26-.802-.489-1.333-.489zm4.466 10.817-2.686-4.83h-1.77v4.83h-2.749v-13.42h5.456q1.28 0 2.311.562a4.16 4.16 0 0 1 1.635 1.541c.395.656.593 1.395.593 2.228a3.86 3.86 0 0 1-.75 2.312c-.5.687-1.176 1.187-2.03 1.52l3.165 5.257h-3.175M97.389 216.329H94.64v13.431h2.749zM107.155 229.749h-2.738v-10.775h-3.904v-2.645h10.526v2.645h-3.884zM119.471 229.999c-1.051 0-1.999-.239-2.831-.708a4.9 4.9 0 0 1-1.906-1.947c-.447-.822-.666-1.738-.666-2.748v-8.267h2.738v8.267c0 .802.24 1.468.708 1.988.469.511 1.125.771 1.957.771s1.479-.26 1.958-.771c.479-.52.718-1.186.718-1.988v-8.267h2.738v8.267c0 1.01-.229 1.926-.676 2.748a4.96 4.96 0 0 1-1.906 1.947c-.822.469-1.77.708-2.832.708M135.444 224.45l-1.635-4.706-1.634 4.706zm4.758 5.299h-2.884l-.979-2.759h-5.07l-.979 2.759h-2.78l4.998-13.42h2.686l4.987 13.42zM151.914 229.749h-8.975v-13.42h2.749v10.776h6.226zM167.198 227.355c.698 0 1.333-.187 1.916-.562.593-.375 1.062-.896 1.416-1.551.354-.656.531-1.396.531-2.197a4.5 4.5 0 0 0-.531-2.187c-.354-.656-.823-1.176-1.416-1.551a3.46 3.46 0 0 0-1.916-.562c-.698 0-1.322.187-1.916.562s-1.062.895-1.416 1.551a4.5 4.5 0 0 0-.531 2.187c0 .801.177 1.541.531 2.197a4 4 0 0 0 1.416 1.551 3.5 3.5 0 0 0 1.916.562m0 2.645a6.2 6.2 0 0 1-3.28-.927 6.76 6.76 0 0 1-2.415-2.52c-.604-1.072-.895-2.238-.895-3.508s.301-2.416.895-3.488c.604-1.073 1.405-1.916 2.415-2.53a6.1 6.1 0 0 1 3.28-.937 6.1 6.1 0 0 1 3.28.937c1.01.614 1.811 1.457 2.415 2.53a7.04 7.04 0 0 1 .895 3.488 7.14 7.14 0 0 1-.895 3.508c-.604 1.062-1.405 1.906-2.415 2.52a6.2 6.2 0 0 1-3.28.927M186.356 216.329v2.645h-6.33v3.227h5.445v2.52h-5.445v5.028h-2.749v-13.42zM202.565 224.45l-1.634-4.706-1.635 4.706zm4.759 5.299h-2.884l-.979-2.759h-5.071l-.978 2.759h-2.78l4.997-13.42h2.687l4.987 13.42zM212.81 218.932v3.488h2.624c.531 0 .979-.156 1.333-.49.364-.322.541-.739.541-1.249s-.177-.937-.541-1.26a1.94 1.94 0 0 0-1.333-.489zm4.467 10.817-2.686-4.83h-1.77v4.83h-2.749v-13.42h5.456q1.28 0 2.311.562a4.17 4.17 0 0 1 1.635 1.541c.395.656.593 1.395.593 2.228s-.25 1.635-.75 2.312c-.499.687-1.176 1.187-2.03 1.52l3.165 5.257h-3.175M229.333 229.749h-2.738v-10.775h-3.894v-2.645h10.516v2.645h-3.884zM245.42 216.329v2.645h-6.33v3.227h5.445v2.52h-5.445v5.028h-2.749v-13.42zM254.134 229.999c-1.052 0-1.999-.239-2.832-.708a4.9 4.9 0 0 1-1.905-1.947c-.448-.822-.667-1.738-.667-2.748v-8.267h2.738v8.267c0 .802.24 1.468.708 1.988.469.511 1.125.771 1.958.771s1.478-.26 1.957-.771c.479-.52.719-1.186.719-1.988v-8.267h2.738v8.267c0 1.01-.229 1.926-.677 2.748a4.97 4.97 0 0 1-1.905 1.947c-.823.469-1.77.708-2.832.708M272.614 229.749h-8.974v-13.42h2.759v10.776h6.215zM288.044 222.68h6.132v7.07h-1.624l-.479-1.76c-.417.552-.989 1.02-1.739 1.416a5.1 5.1 0 0 1-2.447.594 6.2 6.2 0 0 1-3.279-.927 6.77 6.77 0 0 1-2.416-2.52c-.604-1.072-.895-2.238-.895-3.508s.302-2.416.895-3.488a6.7 6.7 0 0 1 2.416-2.53 6.1 6.1 0 0 1 3.279-.937c1.073 0 2.041.229 2.905.666.864.448 1.572 1.031 2.114 1.749a5.8 5.8 0 0 1 1.072 2.228h-2.853c-.198-.51-.572-.968-1.145-1.374-.562-.416-1.249-.614-2.082-.614-.687 0-1.323.187-1.916.562s-1.062.895-1.416 1.551a4.5 4.5 0 0 0-.531 2.187c0 .801.177 1.541.531 2.197a4 4 0 0 0 1.416 1.551 3.5 3.5 0 0 0 1.916.562c.937 0 1.686-.25 2.249-.729.572-.489.937-1.02 1.103-1.603h-3.217v-2.343zM300.975 216.329h-2.748v13.431h2.748zM310.148 225.991l3.29-9.662h2.801l-4.779 13.42h-2.78l-4.758-13.42h2.916zM321.934 216.329h-2.749v13.431h2.749zM334.603 225.106v-8.777h2.645v13.42h-2.509l-5.966-8.787v8.787h-2.645v-13.42h2.52zM347.473 222.68h6.133v7.07h-1.624l-.479-1.76c-.417.552-.989 1.02-1.739 1.416a5.1 5.1 0 0 1-2.447.594 6.2 6.2 0 0 1-3.279-.927 6.77 6.77 0 0 1-2.416-2.52c-.604-1.072-.895-2.238-.895-3.508s.302-2.416.895-3.488c.604-1.073 1.406-1.916 2.416-2.53a6.1 6.1 0 0 1 3.279-.937c1.073 0 2.041.229 2.905.666.864.448 1.572 1.031 2.114 1.749a5.8 5.8 0 0 1 1.072 2.228h-2.853c-.198-.51-.583-.968-1.145-1.374-.562-.416-1.249-.614-2.082-.614-.687 0-1.323.187-1.916.562s-1.062.895-1.416 1.551a4.5 4.5 0 0 0-.531 2.187c0 .801.177 1.541.531 2.197a4 4 0 0 0 1.416 1.551 3.5 3.5 0 0 0 1.916.562c.937 0 1.686-.25 2.249-.729.572-.489.937-1.02 1.103-1.603h-3.217v-2.343zM34.847 98.244c-3.04 0-5.31.24-6.83.719-1.51.479-2.644 1.499-3.373 3.05-.74 1.562-1.104 4.03-1.104 7.413v26.258h31.714v-26.383c0-3.383-.344-5.83-1.041-7.34-.688-1.509-1.791-2.509-3.311-2.988s-3.873-.718-7.08-.718v-2.207h35.357v2.207h-.906q-4.294.124-6.434.843c-1.426.479-2.509 1.499-3.248 3.051-.74 1.561-1.104 3.987-1.104 7.277v61.876c0 3.383.365 5.851 1.104 7.413.74 1.561 1.884 2.571 3.446 3.05q2.343.719 7.153.719v2.207H43.832v-2.207h1.166c2.77 0 4.873-.281 6.3-.844 1.436-.562 2.446-1.645 3.05-3.248s.916-3.967.916-7.09v-30.673H23.551v30.673c0 3.123.323 5.487.979 7.09s1.665 2.686 3.05 3.248 3.425.844 6.112.844h1.166v2.207H0v-2.207h1.166c2.603 0 4.612-.281 6.039-.844q2.156-.843 3.123-3.186c.646-1.561.979-3.946.979-7.152v-61.876c0-4.508-.719-7.496-2.145-8.964q-2.14-2.218-7.34-2.218H0v-2.207h34.847z"/><path fill="#D0C2AA" d="M143.367 159.984h.26v-50.693c0-3.29-.364-5.716-1.103-7.278-.729-1.551-1.906-2.571-3.509-3.05-1.603-.48-3.925-.719-6.955-.719v-2.207h25.612v2.207c-3.206 0-5.528.698-6.955 2.083-1.426 1.384-2.144 3.633-2.144 6.757v79.033h-1.822l-50.434-71.881h-.26v57.066c0 3.206.344 5.611 1.041 7.215.698 1.603 1.77 2.644 3.249 3.113q2.217.719 6.372.843h1.811v2.207H81.106v-2.207c3.644-.177 6.216-.864 7.736-2.072 1.52-1.218 2.28-3.644 2.28-7.288v-66.029a29 29 0 0 1-1.103-1.5 23 23 0 0 0-1.364-1.749c-1.645-2.259-3.01-3.748-4.092-4.487-1.083-.74-2.874-1.104-5.393-1.104v-2.207h19.24l44.967 63.947zM230.197 98.244c-2.342 0-4.091.364-5.268 1.104q-1.749 1.093-1.749 3.966c0 1.125.302 2.687.916 4.675l14.431 51.475h.26l10.786-36.524-4.289-15.211c-.948-3.124-2.031-5.414-3.249-6.882-1.208-1.479-3.332-2.343-6.361-2.603v-2.207h31.453v2.207c-3.29 0-5.706.437-7.215 1.301-1.52.865-2.27 2.426-2.27 4.675 0 1.125.344 2.947 1.041 5.466l13.525 49.267h.25l13.389-47.57c.864-2.863 1.301-5.112 1.301-6.767 0-2.249-.718-3.873-2.145-4.873-1.426-1-3.748-1.499-6.955-1.499v-2.207h22.75v2.207c-1.645.177-2.989.604-4.03 1.301-1.041.688-1.967 1.906-2.79 3.634-.822 1.728-1.718 4.331-2.665 7.798l-21.844 75.65h-2.332l-14.951-54.598h-.26l-16.252 54.598h-1.958l-22.228-77.607c-1.125-3.811-2.301-6.476-3.519-7.986-1.208-1.52-3.113-2.457-5.716-2.8v-2.208h27.944v2.218M329.242 98.244c-2.342 0-4.092.364-5.268 1.104q-1.749 1.093-1.749 3.966c0 1.125.302 2.687.916 4.675l14.43 51.475h.261l10.786-36.524-4.29-15.211c-.947-3.124-2.03-5.414-3.248-6.882-1.208-1.479-3.332-2.343-6.361-2.603v-2.207h31.453v2.207c-3.301 0-5.706.437-7.215 1.301-1.521.865-2.27 2.426-2.27 4.675 0 1.125.343 2.947 1.041 5.466l13.524 49.267h.25l13.39-47.57c.864-2.863 1.301-5.112 1.301-6.767 0-2.249-.718-3.873-2.145-4.873-1.426-1-3.748-1.499-6.955-1.499v-2.207h22.749v2.207c-1.645.177-2.988.604-4.029 1.301-1.041.688-1.968 1.906-2.79 3.634s-1.718 4.331-2.665 7.798l-21.844 75.65h-2.332l-14.951-54.598h-.26l-16.252 54.598h-1.958l-22.228-77.607c-1.125-3.811-2.301-6.476-3.519-7.986-1.208-1.52-3.113-2.457-5.716-2.8v-2.208h27.944v2.218M167.895 124.354c0 9.142 1 15.774 2.999 19.886 1.999 4.113 5.279 6.164 9.828 6.164 4.55 0 8.08-2.187 9.975-6.58q2.842-6.578 2.842-19.48c0-9.308-1.041-15.982-3.124-20.001-2.082-4.029-5.341-6.049-9.776-6.049-3.738 0-6.538 1.364-8.402 4.102-1.864 2.728-3.061 5.935-3.571 9.61s-.771 7.788-.771 12.338m12.827-28.882c4.706 0 8.715 1.364 12.005 4.102 3.3 2.728 5.778 6.299 7.423 10.714 1.656 4.404 2.478 9.1 2.478 14.076s-.833 9.735-2.478 14.118-4.123 7.934-7.423 10.672c-3.301 2.728-7.299 4.092-12.005 4.092s-8.475-1.312-11.775-3.936-5.82-6.143-7.548-10.547c-1.739-4.404-2.593-9.214-2.593-14.399s.823-9.672 2.478-14.076c1.645-4.415 4.123-7.986 7.423-10.714 3.301-2.738 7.309-4.102 12.015-4.102M190.864 160.504H169.01v3.467h21.854z"/></svg>