<svg width="1611" height="11" viewBox="0 0 1611 11" fill="none" xmlns="http://www.w3.org/2000/svg">
<path d="M0.000651042 5.33325C0.000651042 8.27877 2.38847 10.6666 5.33398 10.6666C8.2795 10.6666 10.6673 8.27877 10.6673 5.33325C10.6673 2.38773 8.2795 -8.13802e-05 5.33398 -8.13802e-05C2.38847 -8.13802e-05 0.000651042 2.38773 0.000651042 5.33325ZM1600 5.33325C1600 8.27877 1602.39 10.6666 1605.33 10.6666C1608.28 10.6666 1610.67 8.27877 1610.67 5.33325C1610.67 2.38773 1608.28 -8.13802e-05 1605.33 -8.13802e-05C1602.39 -8.13802e-05 1600 2.38773 1600 5.33325ZM5.33398 5.33325V6.33325H1605.33V5.33325V4.33325H5.33398V5.33325Z" fill="#C8B58D"/>
</svg>
